# Exported from Wings 3D 2.1.6
mtllib beam2.mtl
o Cylinder1
#96 vertices, 188 faces
v 0.98096988 0.99983568 -1.3945618e-3
v 0.90629800 1.08708898 0.36372557
v 0.69365046 1.16105876 0.67325948
v 0.37540092 1.21048378 0.88008343
v 6.2450045e-17 1.22783954 0.95271033
v -0.37540092 1.21048378 0.88008343
v -0.69365046 1.16105876 0.67325948
v -0.90629800 1.08708898 0.36372557
v -0.98096988 0.99983568 -1.3945618e-3
v -0.90629800 0.91258238 -0.36651470
v -0.69365046 0.83861261 -0.67604861
v -0.37540092 0.78918758 -0.88287255
v -1.8041124e-16 0.77183182 -0.95549945
v 0.37540092 0.78918758 -0.88287255
v 0.69365046 0.83861261 -0.67604861
v 0.90629800 0.91258238 -0.36651470
v 0.98096988 -1.00000000 -7.6327833e-17
v 0.90629800 -1.00000000 0.37540092
v 0.69365046 -1.00000000 0.69365046
v 0.37540092 -1.00000000 0.90629800
v 6.2450045e-17 -1.00000000 0.98096988
v -0.37540092 -1.00000000 0.90629800
v -0.69365046 -1.00000000 0.69365046
v -0.90629800 -1.00000000 0.37540092
v -0.98096988 -1.00000000 1.1796120e-16
v -0.90629800 -1.00000000 -0.37540092
v -0.69365046 -1.00000000 -0.69365046
v -0.37540092 -1.00000000 -0.90629800
v -1.8041124e-16 -1.00000000 -0.98096988
v 0.37540092 -1.00000000 -0.90629800
v 0.69365046 -1.00000000 -0.69365046
v 0.90629800 -1.00000000 -0.37540092
v 0.96193977 -1.00000000 0.19134172
v 0.96193977 -1.00000000 -0.19134172
v 0.81549316 -1.00000000 0.54489511
v 0.54489511 -1.00000000 0.81549316
v 0.19134172 -1.00000000 0.96193977
v -0.19134172 -1.00000000 0.96193977
v -0.54489511 -1.00000000 0.81549316
v -0.81549316 -1.00000000 0.54489511
v -0.96193977 -1.00000000 0.19134172
v -0.96193977 -1.00000000 -0.19134172
v -0.81549316 -1.00000000 -0.54489511
v -0.54489511 -1.00000000 -0.81549316
v -0.19134172 -1.00000000 -0.96193977
v 0.19134172 -1.00000000 -0.96193977
v 0.54489511 -1.00000000 -0.81549316
v 0.81549316 -1.00000000 -0.54489511
v 0.96193977 1.04430866 0.18470705
v 0.96193977 0.95536271 -0.18749617
v 0.81549316 1.12648400 0.52857797
v 0.54489511 1.18937829 0.79176538
v 0.19134172 1.22341643 0.93420138
v -0.19134172 1.22341643 0.93420138
v -0.54489511 1.18937829 0.79176538
v -0.81549316 1.12648400 0.52857797
v -0.96193977 1.04430866 0.18470705
v -0.96193977 0.95536271 -0.18749617
v -0.81549316 0.87318736 -0.53136709
v -0.54489511 0.81029308 -0.79455450
v -0.19134172 0.77625493 -0.93699051
v 0.19134172 0.77625493 -0.93699051
v 0.54489511 0.81029308 -0.79455450
v 0.81549316 0.87318736 -0.53136709
v 0.62303677 4.2870064e-2 -0.40350445
v 0.52994895 1.6454951e-2 -0.51404113
v 0.41629987 -5.1811693e-3 -0.60457963
v 0.28680630 -2.1305767e-2 -0.67205462
v 0.14618508 -3.1186310e-2 -0.71340074
v -1.6103915e-16 -3.4565567e-2 -0.72754158
v -0.14618508 -3.1186310e-2 -0.71340074
v -0.28680630 -2.1305767e-2 -0.67205462
v -0.41629987 -5.1811693e-3 -0.60457963
v -0.52994895 1.6454951e-2 -0.51404113
v -0.62303677 4.2870064e-2 -0.40350445
v -0.69241167 7.2967861e-2 -0.27755722
v -0.73492198 0.10565203 -0.14078707
v -0.74946099 0.13962938 1.3945618e-3
v -0.73492198 0.17360674 0.14357619
v -0.69241167 0.20629090 0.28034634
v -0.62303677 0.23638870 0.40629358
v -0.52994895 0.26280381 0.51683025
v -0.41629987 0.28443993 0.60736876
v -0.28680630 0.30056453 0.67484375
v -0.14618508 0.31044507 0.71618986
v 5.5992681e-17 0.31382433 0.73033070
v 0.14618508 0.31044507 0.71618986
v 0.28680630 0.30056453 0.67484375
v 0.41629987 0.28443993 0.60736876
v 0.52994895 0.26280381 0.51683025
v 0.62303677 0.23638870 0.40629358
v 0.69241167 0.20629090 0.28034634
v 0.73492198 0.17360674 0.14357619
v 0.74946099 0.13962938 1.3945618e-3
v 0.73492198 0.10565203 -0.14078707
v 0.69241167 7.2967861e-2 -0.27755722
vt 2.7000000e-2 7.3648764e-3
vt 2.7000000e-2 0.85360971
vt 5.6561910e-2 7.3644609e-3
vt 5.6561910e-2 0.85361013
vt 8.6120126e-2 7.4075764e-3
vt 8.6120126e-2 0.85356701
vt 0.11567240 7.4477779e-3
vt 0.11567240 0.85352681
vt 0.14522612 7.4576292e-3
vt 0.14522612 0.85351696
vt 0.17477835 7.4649263e-3
vt 0.17477835 0.85350966
vt 0.20434862 7.3968796e-3
vt 0.20434862 0.85357771
vt 0.23392782 7.3366785e-3
vt 0.23392782 0.85363791
vt 0.26352387 7.2512031e-3
vt 0.26352387 0.85372338
vt 0.28244673 0.89992052
vt 0.28279930 0.89637550
vt 0.28279930 0.90346555
vt 0.28383019 0.89296541
vt 0.28383019 0.90687564
vt 0.28551254 0.88982516
vt 0.28551254 0.91001589
vt 0.28776995 0.88706914
vt 0.28776995 0.91277191
vt 0.29052596 0.88481174
vt 0.29052596 0.91502931
vt 0.29313157 7.1846830e-3
vt 0.29313157 0.85378990
vt 0.29366621 0.88312938
vt 0.29366621 0.91671166
vt 0.29707631 0.88209850
vt 0.29707631 0.91774255
vt 0.30062133 0.88174593
vt 0.30062133 0.91809512
vt 0.30416635 0.88209850
vt 0.30416635 0.91774255
vt 0.30757645 0.88312938
vt 0.30757645 0.91671166
vt 0.31071669 0.88481174
vt 0.31071669 0.91502931
vt 0.31347271 0.88706914
vt 0.31347271 0.91277191
vt 0.31573011 0.88982516
vt 0.31573011 0.91001589
vt 0.31741247 0.89296541
vt 0.31741247 0.90687564
vt 0.31844335 0.89637550
vt 0.31844335 0.90346555
vt 0.31879593 0.89992052
vt 0.32267156 7.2651635e-3
vt 0.32267156 0.85370942
vt 0.35220298 7.3287063e-3
vt 0.35220298 0.85364588
vt 0.38176059 7.3405737e-3
vt 0.38176059 0.85363401
vt 0.41131663 7.3494313e-3
vt 0.41131663 0.85362516
vt 0.44087816 7.3513071e-3
vt 0.44087816 0.85362328
vt 0.47043924 7.3525612e-3
vt 0.47043924 0.85362203
vt 0.50000000 7.3529103e-3
vt 0.50000000 0.85362168
vt 0.52956076 7.3525612e-3
vt 0.52956076 0.85362203
vt 0.55912184 7.3513071e-3
vt 0.55912184 0.85362328
vt 0.58868337 7.3494313e-3
vt 0.58868337 0.85362516
vt 0.61823941 7.3405737e-3
vt 0.61823941 0.85363401
vt 0.64779702 7.3287063e-3
vt 0.64779702 0.85364588
vt 0.65693455 0.92645885
vt 0.65728713 0.92291383
vt 0.65728713 0.93000387
vt 0.65831801 0.91950373
vt 0.65831801 0.93341397
vt 0.66000037 0.91636348
vt 0.66000037 0.93655421
vt 0.66225777 0.91360747
vt 0.66225777 0.93931023
vt 0.66501378 0.91135006
vt 0.66501378 0.94156763
vt 0.66815403 0.90966771
vt 0.66815403 0.94324999
vt 0.67156413 0.90863682
vt 0.67156413 0.94428087
vt 0.67510915 0.90828425
vt 0.67510915 0.94463345
vt 0.67732844 7.2651635e-3
vt 0.67732844 0.85370942
vt 0.67865417 0.90863682
vt 0.67865417 0.94428087
vt 0.68206427 0.90966771
vt 0.68206427 0.94324999
vt 0.68520452 0.91135006
vt 0.68520452 0.94156763
vt 0.68796053 0.91360747
vt 0.68796053 0.93931023
vt 0.69021793 0.91636348
vt 0.69021793 0.93655421
vt 0.69190029 0.91950373
vt 0.69190029 0.93341397
vt 0.69293117 0.92291383
vt 0.69293117 0.93000387
vt 0.69328375 0.92645885
vt 0.70686843 7.1846830e-3
vt 0.70686843 0.85378990
vt 0.73647613 7.2512031e-3
vt 0.73647613 0.85372338
vt 0.76607218 7.3366785e-3
vt 0.76607218 0.85363791
vt 0.79565138 7.3968796e-3
vt 0.79565138 0.85357771
vt 0.82522165 7.4649263e-3
vt 0.82522165 0.85350966
vt 0.85477388 7.4576292e-3
vt 0.85477388 0.85351696
vt 0.88432760 7.4477779e-3
vt 0.88432760 0.85352681
vt 0.91387987 7.4075764e-3
vt 0.91387987 0.85356701
vt 0.94343809 7.3644609e-3
vt 0.94343809 0.85361013
vt 0.97300000 7.3648764e-3
vt 0.97300000 0.85360971
vn 0.13297760 0.96446798 -0.22829473
vn 0.19903501 0.96922264 -0.14488800
vn 0.19864393 0.97966785 -2.8133631e-2
vn 0.12330274 0.98981834 7.1106176e-2
vn 2.7798637e-17 0.99396728 0.10967698
vn -0.12330274 0.98981834 7.1106176e-2
vn -0.19864393 0.97966785 -2.8133631e-2
vn -0.19903501 0.96922264 -0.14488800
vn -0.13297760 0.96446798 -0.22829473
vn -4.2397872e-2 0.96807236 -0.24705937
vn 2.1560602e-2 0.97766339 -0.20906804
vn 3.1483518e-2 0.98734923 -0.15540361
vn -2.4136563e-17 0.99135941 -0.13117360
vn -3.1483518e-2 0.98734923 -0.15540361
vn -2.1560602e-2 0.97766339 -0.20906804
vn 4.2397872e-2 0.96807236 -0.24705937
vn 0.96988208 -0.24357492 -7.8725313e-10
vn 0.89477584 -0.24164003 0.37548143
vn 0.68255987 -0.23753903 0.69114921
vn 0.36823524 -0.23367748 0.89988757
vn 2.3738375e-17 -0.23212491 0.97268599
vn -0.36823524 -0.23367748 0.89988757
vn -0.68255987 -0.23753903 0.69114921
vn -0.89477584 -0.24164003 0.37548143
vn -0.96988208 -0.24357492 -7.8725302e-10
vn -0.89454381 -0.24194390 -0.37583843
vn -0.68180986 -0.23742490 -0.69192827
vn -0.36741539 -0.23265075 -0.90048851
vn -7.8025537e-17 -0.23062169 -0.97304349
vn 0.36741539 -0.23265075 -0.90048851
vn 0.68180986 -0.23742490 -0.69192827
vn 0.89454381 -0.24194390 -0.37583843
vn 0.43707149 -0.89521513 8.6938911e-2
vn 0.54235519 -0.83319416 -0.10788114
vn 0.30799054 -0.92886557 0.20579258
vn 0.20612396 -0.92862765 0.30848597
vn 7.2459529e-2 -0.92846704 0.36427814
vn -7.2459529e-2 -0.92846704 0.36427814
vn -0.20612396 -0.92862765 0.30848597
vn -0.30799054 -0.92886557 0.20579258
vn -0.54241748 -0.83315200 0.10789353
vn -0.43702805 -0.89523718 -8.6930276e-2
vn -0.30796424 -0.92887817 -0.20577502
vn -0.20616602 -0.92859742 -0.30854887
vn -7.2496815e-2 -0.92839062 -0.36446545
vn 7.2496815e-2 -0.92839062 -0.36446545
vn 0.20616602 -0.92859742 -0.30854887
vn 0.30796424 -0.92887817 -0.20577502
vn 0.17428500 0.96364974 -0.20249423
vn 8.9865676e-2 0.96727792 -0.23727112
vn 0.22065247 0.96958254 -0.10593483
vn 0.18748648 0.98216128 1.4423890e-2
vn 7.3818867e-2 0.99247510 9.7693116e-2
vn -7.3818867e-2 0.99247510 9.7693116e-2
vn -0.18748648 0.98216128 1.4423890e-2
vn -0.22065247 0.96958254 -0.10593483
vn -0.17428500 0.96364974 -0.20249423
vn -8.9865676e-2 0.96727792 -0.23727112
vn -1.8096105e-2 0.97661316 -0.21424112
vn 1.3448809e-2 0.98568043 -0.16808691
vn 8.9806136e-3 0.99077023 -0.13525418
vn -8.9806136e-3 0.99077023 -0.13525418
vn -1.3448809e-2 0.98568043 -0.16808691
vn 1.8096105e-2 0.97661316 -0.21424112
vn -0.29023851 0.95651258 -2.9073939e-2
vn -0.66462161 0.48613795 0.56740463
vn -0.19936133 0.97717968 7.3313960e-2
vn -0.36542045 0.49353226 0.78923621
vn -7.0979748e-2 0.98888999 0.13060806
vn 8.3730652e-17 0.49604132 0.86829891
vn 7.0979748e-2 0.98888999 0.13060806
vn 0.36542045 0.49353226 0.78923621
vn 0.19936133 0.97717968 7.3313960e-2
vn 0.66462161 0.48613795 0.56740463
vn 0.29023851 0.95651258 -2.9073939e-2
vn 0.84493206 0.47451414 0.24683224
vn 0.48096365 0.86990412 -0.10927394
vn 0.88101630 0.46025101 -0.10944996
vn 0.37289960 0.88240905 -0.28688004
vn 0.78051539 0.44576460 -0.43828033
vn 0.25404968 0.88674335 -0.38619294
vn 0.57486008 0.43356711 -0.69394196
vn 0.16360096 0.87270044 -0.46003116
vn 0.30287541 0.42555292 -0.85274334
vn 5.6291010e-2 0.86560601 -0.49755156
vn -2.7580752e-17 0.42277436 -0.90623498
vn -5.6291010e-2 0.86560601 -0.49755156
vn -0.30287541 0.42555292 -0.85274334
vn -0.16360096 0.87270044 -0.46003116
vn -0.57486008 0.43356711 -0.69394196
vn -0.25404968 0.88674335 -0.38619294
vn -0.78051539 0.44576460 -0.43828033
vn -0.45585668 0.84019855 -0.29370236
vn -0.88101630 0.46025101 -0.10944996
vn -0.39210478 0.90966296 -0.13699323
vn -0.84493206 0.47451414 0.24683224
g Cylinder1_Cylinder1_auv
usemtl Cylinder1_auv
s 1
f 1/14/1 49/12/49 17/13/17
f 1/14/1 94/110/94 49/14/49
f 2/10/2 51/8/51 18/9/18
f 2/10/2 92/106/92 51/10/51
f 3/6/3 52/4/52 19/5/19
f 3/6/3 90/102/90 52/6/52
f 4/130/4 53/128/53 20/129/20
f 4/130/4 88/98/88 53/130/53
f 5/126/5 54/124/54 21/125/21
f 5/126/5 86/92/86 54/126/54
f 6/122/6 55/120/55 22/121/22
f 6/122/6 84/88/84 55/122/55
f 7/118/7 56/116/56 23/117/23
f 7/118/7 82/84/82 56/118/56
f 8/114/8 57/112/57 24/113/24
f 8/114/8 80/80/80 57/114/57
f 9/95/9 58/76/58 25/94/25
f 9/95/9 78/77/78 58/95/58
f 10/74/10 59/72/59 26/73/26
f 10/74/10 76/81/76 59/74/59
f 11/70/11 60/68/60 27/69/27
f 11/70/11 74/85/74 60/70/60
f 12/66/12 61/64/61 28/65/28
f 12/66/12 72/89/72 61/66/61
f 13/62/13 62/60/62 29/61/29
f 13/62/13 70/93/70 62/62/62
f 14/58/14 63/56/63 30/57/30
f 14/58/14 68/99/68 63/58/63
f 15/54/15 64/31/64 31/53/31
f 15/54/15 66/103/66 64/54/64
f 16/18/16 50/16/50 32/17/32
f 16/18/16 96/107/96 50/18/50
f 17/13/17 49/12/49 33/11/33
f 17/13/17 50/16/50 1/14/1
f 18/22/18 35/24/35 33/20/33
f 18/9/18 49/12/49 2/10/2
f 18/9/18 51/8/51 35/7/35
f 19/26/19 36/28/36 35/24/35
f 19/5/19 51/8/51 3/6/3
f 19/5/19 52/4/52 36/3/36
f 20/32/20 37/34/37 36/28/36
f 20/1/20 52/4/52 4/2/4
f 20/129/20 53/128/53 37/127/37
f 21/36/21 38/38/38 37/34/37
f 21/125/21 53/128/53 5/126/5
f 21/125/21 54/124/54 38/123/38
f 22/40/22 39/42/39 38/38/38
f 22/121/22 54/124/54 6/122/6
f 22/121/22 55/120/55 39/119/39
f 23/44/23 40/46/40 39/42/39
f 23/117/23 55/120/55 7/118/7
f 23/117/23 56/116/56 40/115/40
f 24/48/24 41/50/41 40/46/40
f 24/113/24 56/116/56 8/114/8
f 24/113/24 57/112/57 41/111/41
f 25/52/25 42/51/42 41/50/41
f 25/94/25 57/112/57 9/95/9
f 25/94/25 58/76/58 42/75/42
f 26/49/26 43/47/43 42/51/42
f 26/73/26 58/76/58 10/74/10
f 26/73/26 59/72/59 43/71/43
f 27/45/27 44/43/44 43/47/43
f 27/69/27 59/72/59 11/70/11
f 27/69/27 60/68/60 44/67/44
f 28/41/28 45/39/45 44/43/44
f 28/65/28 60/68/60 12/66/12
f 28/65/28 61/64/61 45/63/45
f 29/37/29 46/35/46 45/39/45
f 29/61/29 61/64/61 13/62/13
f 29/61/29 62/60/62 46/59/46
f 30/33/30 47/29/47 46/35/46
f 30/57/30 62/60/62 14/58/14
f 30/57/30 63/56/63 47/55/47
f 31/27/31 48/25/48 47/29/47
f 31/53/31 63/56/63 15/54/15
f 31/53/31 64/31/64 48/30/48
f 32/17/32 50/16/50 34/15/34
f 32/17/32 64/31/64 16/18/16
f 33/20/33 34/21/34 17/19/17
f 33/20/33 48/25/48 34/21/34
f 33/11/33 49/12/49 18/9/18
f 34/21/34 48/25/48 32/23/32
f 34/15/34 50/16/50 17/13/17
f 35/24/35 48/25/48 33/20/33
f 35/7/35 51/8/51 19/5/19
f 36/28/36 47/29/47 35/24/35
f 36/3/36 52/4/52 20/1/20
f 37/34/37 46/35/46 36/28/36
f 37/127/37 53/128/53 21/125/21
f 38/38/38 45/39/45 37/34/37
f 38/123/38 54/124/54 22/121/22
f 39/42/39 44/43/44 38/38/38
f 39/119/39 55/120/55 23/117/23
f 40/46/40 43/47/43 39/42/39
f 40/115/40 56/116/56 24/113/24
f 41/50/41 42/51/42 40/46/40
f 41/111/41 57/112/57 25/94/25
f 42/51/42 43/47/43 40/46/40
f 42/75/42 58/76/58 26/73/26
f 43/47/43 44/43/44 39/42/39
f 43/71/43 59/72/59 27/69/27
f 44/43/44 45/39/45 38/38/38
f 44/67/44 60/68/60 28/65/28
f 45/39/45 46/35/46 37/34/37
f 45/63/45 61/64/61 29/61/29
f 46/35/46 47/29/47 36/28/36
f 46/59/46 62/60/62 30/57/30
f 47/29/47 48/25/48 35/24/35
f 47/55/47 63/56/63 31/53/31
f 48/30/48 64/31/64 32/17/32
f 49/12/49 92/106/92 2/12/2
f 50/16/50 94/110/94 1/16/1
f 51/8/51 90/102/90 3/8/3
f 52/4/52 88/98/88 4/4/4
f 53/128/53 86/92/86 5/128/5
f 54/124/54 84/88/84 6/124/6
f 55/120/55 82/84/82 7/120/7
f 56/116/56 80/80/80 8/116/8
f 57/112/57 78/77/78 9/112/9
f 58/76/58 76/81/76 10/76/10
f 59/72/59 74/85/74 11/72/11
f 60/68/60 72/89/72 12/68/12
f 61/64/61 70/93/70 13/64/13
f 62/60/62 68/99/68 14/60/14
f 63/56/63 66/103/66 15/56/15
f 64/31/64 96/107/96 16/31/16
f 65/105/65 64/54/64 66/103/66
f 65/105/65 67/101/67 89/100/89
f 65/105/65 91/104/91 95/109/95
f 65/105/65 96/107/96 64/31/64
f 66/103/66 63/56/63 67/101/67
f 66/103/66 67/101/67 65/105/65
f 67/101/67 63/58/63 68/99/68
f 68/99/68 62/60/62 69/97/69
f 68/99/68 69/97/69 67/101/67
f 69/97/69 62/62/62 70/93/70
f 69/97/69 85/90/85 87/96/87
f 69/97/69 87/96/87 67/101/67
f 70/93/70 61/64/61 71/91/71
f 70/93/70 71/91/71 69/97/69
f 71/91/71 61/66/61 72/89/72
f 71/91/71 83/86/83 85/90/85
f 71/91/71 85/90/85 69/97/69
f 72/89/72 60/68/60 73/87/73
f 72/89/72 73/87/73 71/91/71
f 73/87/73 60/70/60 74/85/74
f 73/87/73 81/82/81 83/86/83
f 73/87/73 83/86/83 71/91/71
f 74/85/74 59/72/59 75/83/75
f 74/85/74 75/83/75 73/87/73
f 75/83/75 59/74/59 76/81/76
f 75/83/75 79/78/79 81/82/81
f 75/83/75 81/82/81 73/87/73
f 76/81/76 58/76/58 77/79/77
f 76/81/76 77/79/77 75/83/75
f 77/79/77 58/95/58 78/77/78
f 77/79/77 79/78/79 75/83/75
f 78/77/78 57/112/57 79/78/79
f 78/77/78 79/78/79 77/79/77
f 79/78/79 57/114/57 80/80/80
f 80/80/80 56/116/56 81/82/81
f 80/80/80 81/82/81 79/78/79
f 81/82/81 56/118/56 82/84/82
f 82/84/82 55/120/55 83/86/83
f 82/84/82 83/86/83 81/82/81
f 83/86/83 55/122/55 84/88/84
f 84/88/84 54/124/54 85/90/85
f 84/88/84 85/90/85 83/86/83
f 85/90/85 54/126/54 86/92/86
f 86/92/86 53/128/53 87/96/87
f 86/92/86 87/96/87 85/90/85
f 87/96/87 53/130/53 88/98/88
f 88/98/88 52/4/52 89/100/89
f 88/98/88 89/100/89 87/96/87
f 89/100/89 52/6/52 90/102/90
f 89/100/89 67/101/67 87/96/87
f 90/102/90 51/8/51 91/104/91
f 90/102/90 91/104/91 89/100/89
f 91/104/91 51/10/51 92/106/92
f 91/104/91 65/105/65 89/100/89
f 92/106/92 49/12/49 93/108/93
f 92/106/92 93/108/93 91/104/91
f 93/108/93 49/14/49 94/110/94
f 93/108/93 95/109/95 91/104/91
f 94/110/94 50/16/50 95/109/95
f 94/110/94 95/109/95 93/108/93
f 95/109/95 50/18/50 96/107/96
f 96/107/96 65/105/65 95/109/95
