# Exported from Wings 3D 2.1.6
mtllib ship.mtl
o tetrahedron5
#55 vertices, 106 faces
v -6.9614841e-4 -0.83398293 -0.79066665
v -6.9614841e-4 -0.24102201 -5.18971370
v -6.9614841e-4 -0.35600812 3.90549784
v -6.9614841e-4 0.48324451 0.14784700
v -6.9614841e-4 8.1769793e-2 1.83803979
v -6.9614841e-4 0.25252178 1.90999597
v -6.9614841e-4 1.49465608 3.05432522
v -6.9614841e-4 0.47357257 4.73762001
v -6.9614841e-4 0.67621489 2.99019750
v -6.9614841e-4 -1.03097180 1.30177642
v -6.9614841e-4 -0.67130127 2.12886248
v -6.9614841e-4 -1.12775021 3.01514723
v -6.9614841e-4 -1.22630648 2.23568450
v -6.9614841e-4 0.23767204 -2.04628644
v -6.9614841e-4 0.73061580 -0.93777297
v -6.9614841e-4 0.56346180 -1.44446426
v -6.9614841e-4 -0.73328309 0.97138579
v 0.60785344 0.24018657 -0.43339281
v 0.34359797 -0.40923346 4.8317201e-2
v 0.42362810 -0.59818935 2.11154125
v 0.57919001 9.5592783e-2 1.94717463
v 0.35412891 0.34219929 1.88875012
v 0.36604526 0.89112411 3.08269193
v 0.46712255 0.25037221 -1.31919589
v 0.42737640 0.59414172 -0.69339056
v 0.30135955 0.55228145 -1.14686867
v 0.74196589 0.17910750 1.09296419
v 2.35780368 0.48008995 1.83264448
v 2.54031945 -0.54221135 2.47982514
v 3.59813834 0.25927038 2.76288409
v 0.71758620 -0.26725882 1.48244903
v 2.41782989 -5.2626930e-2 2.41768148
v 3.34238655 -2.9717650e-2 4.32899248
v 1.66215786 -0.32128937 0.79401014
v 2.57244666 0.34798940 1.15950658
v 0.41131765 -0.49449590 1.01249607
v -0.60924573 0.24018657 -0.43339281
v -0.34499027 -0.40923346 4.8317201e-2
v -0.42502040 -0.59818935 2.11154125
v -0.58058231 9.5592783e-2 1.94717463
v -0.35552121 0.34219929 1.88875012
v -0.36743756 0.89112411 3.08269193
v -0.46851485 0.25037221 -1.31919589
v -0.42876870 0.59414172 -0.69339056
v -0.30275185 0.55228145 -1.14686867
v -0.74335818 0.17910750 1.09296419
v -2.35919597 0.48008995 1.83264448
v -2.54171175 -0.54221135 2.47982514
v -3.59953063 0.25927038 2.76288409
v -0.71897850 -0.26725882 1.48244903
v -2.41922219 -5.2626930e-2 2.41768148
v -3.34377885 -2.9717650e-2 4.32899248
v -1.66355016 -0.32128937 0.79401014
v -2.57383896 0.34798940 1.15950658
v -0.41270994 -0.49449590 1.01249607
vt 1.0634744e-2 0.53314891
vt 3.7902415e-2 8.4469959e-2
vt 6.3233012e-2 0.49582648
vt 6.5542251e-2 0.81514011
vt 7.1764334e-2 0.17344690
vt 9.5269317e-2 0.68794468
vt 0.10976731 0.53159773
vt 0.11141646 0.13832885
vt 0.14698241 0.19694440
vt 0.14946980 0.35968288
vt 0.16175717 0.30831999
vt 0.16561385 9.4049096e-2
vt 0.16985364 3.9362628e-2
vt 0.21109454 0.61322098
vt 0.23655303 0.93381101
vt 0.24399247 0.85970318
vt 0.25169275 0.81452321
vt 0.27808722 9.1745523e-2
vt 0.29294793 0.75745394
vt 0.32056466 0.57807509
vt 0.32635272 0.54370050
vt 0.32744375 0.43922320
vt 0.33882941 0.16945361
vt 0.34112526 0.37238660
vt 0.35678474 0.79033219
vt 0.37048179 0.25449483
vt 0.37346879 2.5525838e-2
vt 0.38449998 0.82769064
vt 0.39758157 0.79284270
vt 0.40091583 0.70387025
vt 0.43299292 0.59062464
vt 0.44182402 0.16128256
vt 0.50146861 0.33414312
vt 0.53585403 0.51976581
vt 0.55055845 0.16984849
vt 0.55847206 0.88426208
vt 0.57122358 0.75945503
vt 0.57717494 0.23327686
vt 0.57717494 0.56925503
vt 0.62765621 0.15712276
vt 0.63456475 0.90082940
vt 0.66370134 0.75020835
vt 0.66576322 0.19422582
vt 0.66763600 0.95378184
vt 0.68476237 0.77613569
vt 0.69256915 0.89467761
vt 0.69796729 0.92169266
vt 0.70506287 0.31412438
vt 0.70655643 0.49797548
vt 0.73491091 0.94796715
vt 0.73951472 0.92080545
vt 0.74305664 0.74846484
vt 0.74523742 0.37346450
vt 0.76413467 0.77555196
vt 0.76538375 0.92553253
vt 0.76654454 0.12189287
vt 0.79390786 0.52719675
vt 0.79688836 0.87163330
vt 0.80483117 0.69248777
vt 0.81370773 0.22547100
vt 0.82454565 0.81580730
vt 0.84800396 0.46115093
vt 0.84880559 0.11320940
vt 0.86226997 0.18914928
vt 0.87132813 0.96590083
vt 0.88252901 0.74065279
vt 0.88345239 6.2118199e-2
vt 0.90012253 0.64843546
vt 0.94794379 0.12940871
vt 0.95339821 0.78500281
vt 0.97830316 0.20066752
vt 0.98058134 0.59340656
vt 0.98920545 0.15153920
vn 3.4420971e-17 -0.99528430 -9.7000803e-2
vn 4.9819716e-17 0.90243388 -0.43082837
vn 0.0000000e+0 0.99200861 0.12617022
vn 3.0164260e-18 0.99340252 0.11467967
vn -3.3019866e-17 8.0466450e-2 0.99675732
vn -4.6177921e-17 -0.71289085 0.70127501
vn 0.0000000e+0 0.99850536 -5.4653864e-2
vn -2.7693019e-16 -0.85498013 0.51866076
vn -3.1270722e-17 -0.97105619 0.23885115
vn -4.1084768e-17 -0.92150310 -0.38837100
vn 4.5297437e-18 0.86805376 0.49647021
vn -1.8357982e-16 -0.93276911 0.36047439
vn -4.9475438e-17 -0.99899850 -4.4743766e-2
vn 3.1435062e-17 0.95309514 -0.30267085
vn 0.0000000e+0 0.99520374 -9.7823909e-2
vn 0.0000000e+0 0.87593284 -0.48243306
vn -1.5723411e-16 -0.95616125 -0.29284067
vn 0.97042240 0.11982701 -0.20957541
vn 0.77735282 -0.62413947 -7.8565332e-2
vn 0.87552918 -0.25298053 0.41164246
vn 0.61522864 0.48141839 0.62428363
vn 0.81459666 -0.12696846 0.56596050
vn 0.95773850 -0.25566700 0.13180039
vn 0.71791706 0.63061054 -0.29483122
vn 0.64770541 0.76186060 6.7917579e-3
vn 0.53275427 0.77583793 -0.33800650
vn 0.11025083 0.92297368 0.36873342
vn -0.21413645 0.95672825 0.19701938
vn -9.0261469e-2 -0.95487403 0.28296369
vn 0.93264500 -6.2886053e-2 -0.35527265
vn 0.55695152 -0.72394197 0.40707865
vn -0.67704436 0.31533159 0.66496385
vn -0.72050554 0.24778070 0.64767005
vn 0.34516124 -0.83650199 -0.42559151
vn 0.68137372 0.39278882 -0.61761379
vn 0.70240738 -0.68264971 -0.20152731
vn -0.97042240 0.11982701 -0.20957541
vn -0.77735282 -0.62413947 -7.8565332e-2
vn -0.87552918 -0.25298053 0.41164246
vn -0.61522864 0.48141839 0.62428363
vn -0.81459666 -0.12696846 0.56596050
vn -0.95773850 -0.25566700 0.13180039
vn -0.71791706 0.63061054 -0.29483122
vn -0.64770541 0.76186060 6.7917579e-3
vn -0.53275427 0.77583793 -0.33800650
vn -0.11025083 0.92297368 0.36873342
vn 0.21413645 0.95672825 0.19701938
vn 9.0261469e-2 -0.95487403 0.28296369
vn -0.93264500 -6.2886053e-2 -0.35527265
vn -0.55695152 -0.72394197 0.40707865
vn 0.67704436 0.31533159 0.66496385
vn 0.72050554 0.24778070 0.64767005
vn -0.34516124 -0.83650199 -0.42559151
vn -0.68137372 0.39278882 -0.61761379
vn -0.70240738 -0.68264971 -0.20152731
g tetrahedron5_tetrahedron5_auv
usemtl tetrahedron5_auv
s 1
f 1/27/1 37/23/37 2/67/2
f 1/27/1 38/18/38 37/23/37
f 2/67/2 18/23/18 1/27/1
f 2/67/2 24/32/24 18/23/18
f 2/39/2 43/40/43 14/38/14
f 3/43/3 20/64/20 11/60/11
f 3/43/3 39/64/39 12/56/12
f 4/36/4 22/28/22 21/29/21
f 4/62/4 25/68/25 15/59/15
f 4/49/4 27/53/27 18/57/18
f 4/36/4 41/28/41 7/15/7
f 4/62/4 44/68/44 37/72/37
f 5/46/5 20/52/20 21/58/21
f 5/46/5 22/55/22 6/47/6
f 5/51/5 39/45/39 11/54/11
f 5/51/5 41/44/41 40/41/40
f 6/25/6 22/28/22 9/17/9
f 6/50/6 41/44/41 5/51/5
f 7/15/7 22/28/22 4/36/4
f 7/15/7 41/28/41 42/16/42
f 7/15/7 42/16/42 8/4/8
f 8/4/8 23/16/23 7/15/7
f 8/4/8 42/16/42 9/17/9
f 9/17/9 23/16/23 8/4/8
f 9/17/9 41/28/41 6/25/6
f 10/69/10 20/64/20 13/63/13
f 10/69/10 36/71/36 20/64/20
f 10/69/10 55/71/55 17/73/17
f 11/42/11 20/52/20 5/46/5
f 11/60/11 39/64/39 3/43/3
f 12/56/12 20/64/20 3/43/3
f 12/56/12 39/64/39 13/63/13
f 13/63/13 20/64/20 12/56/12
f 13/63/13 39/64/39 10/69/10
f 14/38/14 24/40/24 2/39/2
f 14/65/14 43/70/43 16/61/16
f 15/59/15 26/66/26 16/61/16
f 15/59/15 44/68/44 4/62/4
f 15/59/15 45/66/45 44/68/44
f 16/61/16 24/70/24 14/65/14
f 16/61/16 43/70/43 45/66/45
f 16/61/16 45/66/45 15/59/15
f 17/73/17 36/71/36 10/69/10
f 17/13/17 38/18/38 1/27/1
f 18/23/18 19/18/19 1/27/1
f 18/72/18 25/68/25 4/62/4
f 18/3/18 28/24/28 35/22/35
f 19/18/19 17/13/17 1/27/1
f 19/18/19 18/23/18 36/12/36
f 20/2/20 31/8/31 21/5/21
f 20/2/20 36/12/36 31/8/31
f 21/58/21 22/55/22 5/46/5
f 21/5/21 31/8/31 27/9/27
f 23/16/23 9/17/9 22/28/22
f 23/16/23 22/28/22 7/15/7
f 24/70/24 25/68/25 18/72/18
f 25/68/25 26/66/26 15/59/15
f 26/66/26 24/70/24 16/61/16
f 26/66/26 25/68/25 24/70/24
f 27/53/27 4/49/4 21/48/21
f 27/10/27 28/24/28 18/3/18
f 27/10/27 32/26/32 28/24/28
f 28/24/28 33/35/33 30/33/30
f 29/14/29 31/31/31 34/30/34
f 29/20/29 33/7/33 32/21/32
f 29/14/29 34/30/34 30/6/30
f 30/6/30 33/1/33 29/14/29
f 30/33/30 35/22/35 28/24/28
f 31/11/31 32/26/32 27/10/27
f 31/8/31 36/12/36 18/23/18
f 32/21/32 31/34/31 29/20/29
f 32/26/32 33/35/33 28/24/28
f 34/30/34 31/31/31 18/37/18
f 34/30/34 35/19/35 30/6/30
f 35/19/35 34/30/34 18/37/18
f 36/12/36 17/13/17 19/18/19
f 37/23/37 43/32/43 2/67/2
f 37/72/37 44/68/44 43/70/43
f 37/57/37 46/53/46 4/49/4
f 37/3/37 47/24/47 46/10/46
f 37/37/37 50/31/50 53/30/53
f 37/37/37 53/30/53 54/19/54
f 37/23/37 55/12/55 50/8/50
f 38/18/38 17/13/17 55/12/55
f 39/64/39 55/71/55 10/69/10
f 40/48/40 4/49/4 46/53/46
f 40/41/40 39/45/39 5/51/5
f 40/29/40 41/28/41 4/36/4
f 40/5/40 50/8/50 39/2/39
f 41/28/41 9/17/9 42/16/42
f 43/70/43 44/68/44 45/66/45
f 46/9/46 50/8/50 40/5/40
f 46/10/46 51/26/51 50/11/50
f 47/24/47 51/26/51 46/10/46
f 47/24/47 52/35/52 51/26/51
f 47/24/47 54/22/54 49/33/49
f 48/20/48 50/34/50 51/21/51
f 48/14/48 52/1/52 49/6/49
f 49/33/49 52/35/52 47/24/47
f 49/6/49 53/30/53 48/14/48
f 49/6/49 54/19/54 53/30/53
f 50/8/50 55/12/55 39/2/39
f 51/21/51 52/7/52 48/20/48
f 53/30/53 50/31/50 48/14/48
f 54/22/54 47/24/47 37/3/37
f 55/12/55 37/23/37 38/18/38
