# Exported from Wings 3D 2.1.6
mtllib ship2.mtl
o tetrahedron1
#37 vertices, 70 faces
v 0.13792648 0.83493966 2.78780024
v 0.13792648 -3.8579889e-2 0.70318826
v -1.00852464 0.19298011 0.58074692
v 0.13792648 0.18054109 -1.85674159
v 0.13792648 -0.34988127 1.10742222
v -2.03366679 -0.25940437 2.43696210
v 0.13792648 -0.34988127 -3.23702005
v -0.32939587 0.54680964 1.28516188
v 0.13792648 0.54378878 -0.70094075
v -0.33957426 7.5537094e-2 -1.14646466
v -0.28381336 0.40489324 -0.47344513
v -0.84228579 -0.25940437 -0.52435486
v -1.65685770 1.2026317e-2 2.08424273
v -1.52386662 -0.34988127 0.77829545
v -0.76078058 4.8304011e-2 -0.39216809
v -1.29482574 -0.10860955 0.69049610
v 0.13792648 -0.34988127 -1.06479891
v 0.13792648 -0.19423058 0.90530524
v 1.28437760 0.19298011 0.58074692
v 2.30951975 -0.25940437 2.43696210
v 0.60524883 0.54680964 1.28516188
v 0.61542722 7.5537094e-2 -1.14646466
v 0.55966632 0.40489324 -0.47344513
v 1.11813875 -0.25940437 -0.52435486
v 1.93271066 1.2026317e-2 2.08424273
v 1.79971958 -0.34988127 0.77829545
v 1.03663354 4.8304011e-2 -0.39216809
v 1.57067870 -0.10860955 0.69049610
v 0.13792648 0.46924199 -1.27884117
v -0.14130376 7.7100324e-2 -1.61380677
v -9.6695041e-2 0.51033530 -0.56876655
v -0.37592528 0.22238095 -0.71617764
v 0.41715672 7.7100324e-2 -1.61380677
v 0.37254800 0.51033530 -0.56876655
v 0.65177824 0.22238095 -0.71617764
v -0.14493700 0.32673946 -1.10340821
v 0.42078996 0.32673946 -1.10340821
vt 6.7635472e-3 0.39685467
vt 1.0362931e-2 0.55783050
vt 4.0298629e-2 0.97240101
vt 4.1042979e-2 0.84988710
vt 4.7760085e-2 0.12441186
vt 6.7246394e-2 7.6106556e-2
vt 6.9575116e-2 0.49522541
vt 9.2587928e-2 0.65595992
vt 0.11665242 0.79948870
vt 0.12242337 0.17620163
vt 0.15146160 0.39681332
vt 0.15506026 0.55737340
vt 0.15621177 0.17768886
vt 0.19493717 0.33060479
vt 0.20571928 0.48864311
vt 0.22517125 0.59411862
vt 0.22517125 0.76363722
vt 0.23775080 0.72247158
vt 0.23775080 0.63528425
vt 0.24157970 0.33595459
vt 0.24546778 0.48901114
vt 0.25051646 4.1681883e-2
vt 0.25841177 0.67887792
vt 0.26338135 0.44451331
vt 0.27683027 0.79029949
vt 0.27683027 0.56745634
vt 0.28226264 0.48775541
vt 0.30892360 0.88921126
vt 0.31632291 9.0054587e-2
vt 0.31793749 0.97635447
vt 0.33189213 0.32398400
vt 0.33279041 0.94250025
vt 0.33567482 0.36586826
vt 0.33653354 0.62298258
vt 0.33653354 0.73477325
vt 0.33741531 0.84379699
vt 0.34396884 0.13598863
vt 0.35164664 0.39038631
vt 0.35248999 0.55311633
vt 0.35427185 0.90560632
vt 0.35803730 0.78566210
vt 0.35803730 0.57209373
vt 0.35829357 0.67887792
vt 0.36729002 0.28209437
vt 0.36729002 0.30994202
vt 0.37921416 4.3613901e-2
vt 0.38208858 0.55548955
vt 0.38293193 0.39275953
vt 0.39089992 0.92271271
vt 0.39890375 0.36824149
vt 0.40268644 0.32635723
vt 0.43699426 0.74136517
vt 0.43699426 0.61639066
vt 0.44971418 0.56829997
vt 0.44971418 0.78824004
vt 0.45231593 0.49012863
vt 0.46758770 6.9368725e-2
vt 0.46933833 0.67887792
vt 0.47119869 0.44451331
vt 0.49300034 0.33595459
vt 0.52625030 0.82581240
vt 0.53001361 0.61658138
vt 0.53001361 0.73995863
vt 0.53243845 0.15746664
vt 0.53817505 0.87817881
vt 0.53853005 0.53020789
vt 0.53964286 0.33060479
vt 0.54533078 0.10533001
vt 0.56261471 0.29574202
vt 0.56501848 0.67827000
vt 0.57836826 0.17768886
vt 0.59628541 1.5927059e-2
vt 0.66086793 0.82158451
vt 0.66695472 0.16418642
vt 0.66853879 0.91875925
vt 0.68339170 0.95261347
vt 0.70487314 0.98950740
vt 0.70869748 0.53034884
vt 0.74601310 0.44649441
vt 0.74758558 0.14692324
vt 0.75062702 0.60768493
vt 0.75075508 0.45308231
vt 0.77243060 0.34934545
vt 0.77298176 0.24434417
vt 0.77955547 5.0351732e-2
vt 0.83793209 0.67827000
vt 0.85317347 0.66042736
vt 0.85338876 0.40050984
vt 0.87886490 0.53048979
vt 0.93417950 0.29769240
vt 0.98305288 0.70028097
vt 0.98333402 0.36087144
vt 0.98535916 0.92525555
vt 0.99330991 6.6541507e-2
vn 0.0000000e+0 0.58978899 0.80755740
vn 1.6334333e-17 -0.43926973 0.89835522
vn -0.52102650 0.85257873 4.0508048e-2
vn 3.3746151e-17 0.91536102 -0.40263407
vn -6.5794120e-17 -0.56258350 0.82674047
vn -0.34647240 -6.5600885e-3 0.93803723
vn 1.2266067e-16 0.75894776 -0.65115152
vn -0.69590789 0.68898748 0.20250544
vn -4.2958995e-17 0.99648549 -8.3765586e-2
vn -0.69006945 0.65223248 -0.31368288
vn -0.54128002 0.81638295 -0.20133261
vn -0.88198171 -0.19409603 -0.42945894
vn -0.36056703 0.92589887 0.11270626
vn -0.90938332 -0.19707835 -0.36630874
vn -0.74346868 0.58612600 -0.32204135
vn -0.72593519 0.63868961 -0.25513464
vn 4.6712301e-18 -0.99853673 -5.4077752e-2
vn -3.9611327e-17 0.87079453 0.49164712
vn 0.52102650 0.85257873 4.0508048e-2
vn 0.34647240 -6.5600885e-3 0.93803723
vn 0.69590789 0.68898748 0.20250544
vn 0.69006945 0.65223248 -0.31368288
vn 0.54128002 0.81638295 -0.20133261
vn 0.88198171 -0.19409603 -0.42945894
vn 0.36056703 0.92589887 0.11270626
vn 0.90938332 -0.19707835 -0.36630874
vn 0.74346868 0.58612600 -0.32204135
vn 0.72593519 0.63868961 -0.25513464
vn -9.7941963e-17 0.94882688 -0.31579671
vn -0.64553365 0.69478398 -0.31711437
vn -0.45937706 0.87153201 -0.17147791
vn -0.66124407 0.69449932 -0.28359650
vn 0.64553365 0.69478398 -0.31711437
vn 0.45937706 0.87153201 -0.17147791
vn 0.66124407 0.69449932 -0.28359650
vn -0.64114010 0.71836729 -0.26997743
vn 0.64114010 0.71836729 -0.26997743
g tetrahedron1_tetrahedron1_auv
usemtl tetrahedron1_auv
s 1
f 1/90/1 8/84/8 2/80/2
f 1/90/1 9/69/9 8/84/8
f 1/90/1 21/83/21 9/69/9
f 2/12/2 8/8/8 3/2/3
f 2/79/2 21/83/21 1/90/1
f 3/20/3 15/24/15 13/13/13
f 3/20/3 18/44/18 2/45/2
f 3/56/3 32/50/32 10/51/10
f 4/58/4 29/43/29 33/53/33
f 4/58/4 30/52/30 29/43/29
f 4/70/4 33/62/33 7/86/7
f 5/15/5 13/9/13 6/4/6
f 5/89/5 14/87/14 17/78/17
f 5/15/5 25/10/25 18/21/18
f 5/89/5 26/88/26 20/92/20
f 6/91/6 14/87/14 5/89/5
f 7/66/7 17/78/17 12/81/12
f 7/94/7 22/74/22 24/68/24
f 7/66/7 24/82/24 17/78/17
f 7/86/7 30/63/30 4/70/4
f 7/86/7 33/62/33 22/54/22
f 8/47/8 11/48/11 3/56/3
f 8/3/8 31/32/31 11/30/11
f 9/23/9 34/19/34 29/43/29
f 10/6/10 15/22/15 3/57/3
f 10/41/10 32/25/32 30/52/30
f 11/48/11 32/50/32 3/56/3
f 12/65/12 10/73/10 7/93/7
f 12/65/12 15/61/15 10/73/10
f 12/81/12 17/78/17 14/87/14
f 13/9/13 14/28/14 6/4/6
f 13/13/13 18/44/18 3/20/3
f 14/28/14 13/9/13 16/36/16
f 14/28/14 15/61/15 12/65/12
f 16/14/16 13/13/13 15/24/15
f 16/36/16 15/61/15 14/28/14
f 17/78/17 26/88/26 5/89/5
f 18/21/18 13/9/13 5/15/5
f 18/44/18 19/60/19 2/45/2
f 19/60/19 18/44/18 25/71/25
f 19/11/19 21/7/21 2/1/2
f 19/27/19 23/38/23 21/39/21
f 19/46/19 27/72/27 22/85/22
f 20/5/20 25/10/25 5/15/5
f 20/5/20 26/29/26 25/10/25
f 21/49/21 34/76/34 9/77/9
f 22/74/22 27/64/27 24/68/24
f 22/31/22 35/33/35 19/27/19
f 23/38/23 19/27/19 35/33/35
f 23/16/23 35/26/35 34/19/34
f 24/68/24 27/64/27 26/29/26
f 25/71/25 27/59/27 19/60/19
f 26/88/26 17/78/17 24/82/24
f 26/29/26 27/64/27 28/37/28
f 27/59/27 25/71/25 28/67/28
f 28/37/28 25/10/25 26/29/26
f 29/43/29 31/18/31 9/23/9
f 30/63/30 7/86/7 10/55/10
f 30/52/30 32/25/32 36/35/36
f 31/32/31 8/3/8 9/40/9
f 31/18/31 32/25/32 11/17/11
f 33/53/33 35/26/35 22/42/22
f 34/76/34 21/49/21 23/75/23
f 34/19/34 35/26/35 37/34/37
f 36/35/36 29/43/29 30/52/30
f 36/35/36 31/18/31 29/43/29
f 36/35/36 32/25/32 31/18/31
f 37/34/37 29/43/29 34/19/34
f 37/34/37 33/53/33 29/43/29
f 37/34/37 35/26/35 33/53/33
