# Exported from Wings 3D 2.1.6
mtllib snaketail.mtl
o Cube4
#109 vertices, 214 faces
v 7.5531912e-2 -1.00000000 0.68573557
v 0.15755323 -1.00000000 0.78796718
v -7.5531912e-2 -1.00000000 0.68573557
v -0.15755323 -1.00000000 0.78796718
v 0.31956622 1.00000000 0.11415223
v 0.65400423 1.00000000 0.53980400
v -0.31956622 1.00000000 0.11415223
v -0.65400423 1.00000000 0.53980400
v -0.10736921 -1.00000000 0.90895513
v 0.10736921 -1.00000000 0.90895513
v 0.47182492 1.00000000 1.05515609
v -0.47182492 1.00000000 1.05515609
v 0.12936895 -1.00000000 0.72748067
v -3.4694470e-18 -1.00000000 0.67140741
v 0.26340821 -9.0049169e-17 0.19420728
v 0.53907476 -1.0692888e-16 0.54505840
v -0.12936895 -1.00000000 0.72748067
v -0.26340821 -5.7790967e-17 0.19420728
v -0.53907476 -4.0911259e-17 0.54505840
v 0.53892498 1.00000000 0.28888582
v 1.5879056e-16 1.00000000 5.5907707e-2
v -0.53892498 1.00000000 0.28888582
v 5.2041704e-18 -1.00000000 0.92769654
v -0.15652429 -1.00000000 0.85562523
v 0.38891019 -9.7733949e-17 0.96984664
v 0.15652429 -1.00000000 0.85562523
v 2.0397664e-16 1.00000000 1.13134068
v 0.66073194 1.00000000 0.82660231
v -0.38891019 -5.0106187e-17 0.96984664
v -0.66073194 1.00000000 0.82660231
v -0.44421862 -4.6719523e-17 0.33823458
v 0.44421862 -1.0112061e-16 0.33823458
v 1.2967300e-16 -7.3920068e-17 1.03264316
v 9.2427565e-17 -7.3920068e-17 0.14619818
v 0.54462019 -1.0726844e-16 0.78145707
v -0.54462019 -4.0571699e-17 0.78145707
v -2.4285985e-18 -1.07110218 0.85533959
v -4.8371903e-2 -1.07110218 0.84665190
v -7.1589834e-2 -1.07110218 0.82239620
v -7.2498624e-2 -1.07110218 0.79149860
v -5.9453790e-2 -1.07110218 0.76365914
v -3.4517478e-2 -1.07110218 0.74450737
v -6.4683608e-18 -1.07110218 0.73786547
v 3.4517478e-2 -1.07110218 0.74450737
v 5.9453790e-2 -1.07110218 0.76365914
v 7.2498624e-2 -1.07110218 0.79149860
v 7.1589834e-2 -1.07110218 0.82239620
v 4.8371903e-2 -1.07110218 0.84665190
v 0.10559442 -1.00000000 0.70364576
v 3.9306646e-2 -1.00000000 0.67498945
v -0.10559442 -1.00000000 0.70364576
v 5.8034466e-2 -1.00000000 0.92301118
v -0.16171255 -1.00000000 0.82214006
v 0.16171255 -1.00000000 0.82214006
v 0.14673029 -1.00000000 0.75600093
v -3.9306646e-2 -1.00000000 0.67498945
v -0.14673029 -1.00000000 0.75600093
v -5.8034466e-2 -1.00000000 0.92301118
v -0.13930449 -1.00000000 0.88552836
v 0.13930449 -1.00000000 0.88552836
v -2.0384606e-2 -1.07998995 0.83945744
v 1.7347235e-18 -1.04570854 0.88511729
v -4.8930704e-2 -1.07998995 0.82629160
v -7.3118429e-2 -1.04570854 0.87235439
v -5.6801533e-2 -1.07998995 0.80402646
v -0.10659304 -1.04570854 0.83603673
v -5.1539015e-2 -1.07998995 0.78079509
v -0.10729375 -1.04570854 0.78996160
v -3.7090039e-2 -1.07998995 0.76240534
v -8.8100255e-2 -1.04570854 0.74877029
v -1.3806459e-2 -1.07998995 0.75233981
v -5.1437232e-2 -1.04570854 0.72034188
v 1.3806459e-2 -1.07998995 0.75233981
v -4.3368087e-18 -1.04570854 0.71058440
v 3.7090039e-2 -1.07998995 0.76240534
v 5.1437232e-2 -1.04570854 0.72034188
v 5.1539015e-2 -1.07998995 0.78079509
v 8.8100255e-2 -1.04570854 0.74877029
v 5.6801533e-2 -1.07998995 0.80402646
v 0.10729375 -1.04570854 0.78996160
v 4.8930704e-2 -1.07998995 0.82629160
v 0.10659304 -1.04570854 0.83603673
v 2.0384606e-2 -1.07998995 0.83945744
v 7.3118429e-2 -1.04570854 0.87235439
v -1.1208238e-17 -1.09141708 0.79421929
v -3.9521471e-2 -1.04570854 0.88192657
v -9.4866361e-2 -1.04570854 0.85640077
v -0.11012625 -1.04570854 0.81323333
v -9.9923329e-2 -1.04570854 0.76819259
v -7.1909799e-2 -1.04570854 0.73253872
v -2.6767826e-2 -1.04570854 0.71302377
v 2.6767826e-2 -1.04570854 0.71302377
v 7.1909799e-2 -1.04570854 0.73253872
v 9.9923329e-2 -1.04570854 0.76819259
v 0.11012625 -1.04570854 0.81323333
v 9.4866361e-2 -1.04570854 0.85640077
v 3.9521471e-2 -1.04570854 0.88192657
v -0.49164669 -4.3815391e-17 0.44164649
v -0.35381341 -5.2255245e-17 0.26622093
v 0.35381341 -9.5584891e-17 0.26622093
v 0.49164669 -1.0402474e-16 0.44164649
v 0.19445509 -8.5827008e-17 1.00124490
v -0.19445509 -6.2013127e-17 1.00124490
v -0.13170411 -6.5855517e-17 0.17020273
v 0.13170411 -8.1984618e-17 0.17020273
v 0.54184748 -1.0709866e-16 0.66325774
v 0.46676519 -1.0250119e-16 0.87565186
v -0.54184748 -4.0741479e-17 0.66325774
v -0.46676519 -4.5338943e-17 0.87565186
vt 0.0000000e+0 0.15416494
vt 0.0000000e+0 0.26678690
vt 1.6653345e-16 1.1102230e-16
vt 1.6653345e-16 0.22437180
vt 1.6653345e-16 0.31950973
vt 1.6653345e-16 0.39550814
vt 3.8857806e-16 0.50000000
vt 4.9960036e-16 0.60449186
vt 6.1062266e-16 0.68049027
vt 6.6613381e-16 0.73321310
vt 7.2164497e-16 0.77562820
vt 7.2164497e-16 0.84583506
vt 7.2164497e-16 1.00000000
vt 0.26525848 2.2204460e-16
vt 0.26525848 0.22437180
vt 0.26525848 7.7082468e-2
vt 0.26525848 0.15416494
vt 0.26525848 0.18926837
vt 0.26525848 0.24557935
vt 0.26525848 0.26678690
vt 0.26525848 0.29314832
vt 0.26525848 0.31950973
vt 0.26525848 0.35750893
vt 0.26525848 0.39550814
vt 0.26525848 0.44775407
vt 0.26525848 0.50000000
vt 0.26525848 0.55224593
vt 0.26525848 0.60449186
vt 0.26525848 0.64249107
vt 0.26525848 0.68049027
vt 0.26525848 0.70685168
vt 0.26525848 0.73321310
vt 0.26525848 0.75442065
vt 0.26525848 0.77562820
vt 0.26525848 0.81073163
vt 0.26525848 0.84583506
vt 0.26525848 0.92291753
vt 0.26525848 1.00000000
vt 0.53051696 0.22437180
vt 0.53051696 0.0000000e+0
vt 0.53051696 0.18926837
vt 0.53051696 0.24557935
vt 0.53051696 7.7082468e-2
vt 0.53051696 0.15416494
vt 0.53051696 0.26678690
vt 0.53051696 0.29314832
vt 0.53051696 0.35750893
vt 0.53051696 0.39550814
vt 0.53051696 0.31950973
vt 0.53051696 0.44775407
vt 0.53051696 0.50000000
vt 0.53051696 0.55224593
vt 0.53051696 0.60449186
vt 0.53051696 0.64249107
vt 0.53051696 0.68049027
vt 0.53051696 0.70685168
vt 0.53051696 0.73321310
vt 0.53051696 0.75442065
vt 0.53051696 0.77562820
vt 0.53051696 0.81073163
vt 0.53051696 0.84583506
vt 0.53051696 0.92291753
vt 0.53051696 1.00000000
vt 0.55134752 0.72725603
vt 0.55604659 0.68864862
vt 0.55720905 0.76508650
vt 0.56827400 0.65253418
vt 0.57666342 0.79887010
vt 0.58788828 0.62031290
vt 0.60962807 0.71719350
vt 0.61274289 0.82533691
vt 0.61282813 0.69090185
vt 0.61361977 0.74295605
vt 0.61474798 0.59338499
vt 0.62115500 0.66630792
vt 0.62686820 0.76596269
vt 0.63451233 0.64436523
vt 0.64871164 0.57315063
vt 0.65143831 0.78398658
vt 0.65213855 0.69263830
vt 0.65280378 0.62602732
vt 0.65316527 0.72754542
vt 0.66687618 0.66118618
vt 0.66847969 0.84121699
vt 0.66987262 0.70679188
vt 0.67581804 0.68054582
vt 0.67593303 0.61224773
vt 0.67876482 0.73194632
vt 0.67939614 0.75494873
vt 0.68939507 0.79480091
vt 0.68963778 0.56101002
vt 0.69214203 0.65976967
vt 0.69504842 0.63954912
vt 0.70380373 0.60397997
vt 0.71101529 0.74682066
vt 0.71844707 0.64839796
vt 0.73404516 0.69571205
vt 0.73404516 0.55696315
vt 0.73404516 0.60122405
vt 0.73404516 0.63204532
vt 0.73404516 0.76476380
vt 0.73404516 0.79840569
vt 0.73404516 0.84651035
vt 0.74964325 0.64839796
vt 0.75707503 0.74682066
vt 0.76428659 0.60397997
vt 0.77304189 0.63954912
vt 0.77594829 0.65976967
vt 0.77845254 0.56101002
vt 0.77869525 0.79480091
vt 0.78869418 0.75494873
vt 0.78932549 0.73194632
vt 0.79215729 0.61224773
vt 0.79227228 0.68054582
vt 0.79821770 0.70679188
vt 0.79961063 0.84121699
vt 0.80121414 0.66118618
vt 0.81299522 0.39620435
vt 0.81383651 0.43206807
vt 0.81492505 0.72754542
vt 0.81528654 0.62602732
vt 0.81595177 0.69263830
vt 0.81665201 0.78398658
vt 0.81937868 0.57315063
vt 0.82822701 0.46344503
vt 0.83357799 0.64436523
vt 0.83661778 0.36762403
vt 0.84122212 0.76596269
vt 0.84693532 0.66630792
vt 0.85334234 0.59338499
vt 0.85447055 0.74295605
vt 0.85526219 0.69090185
vt 0.85534743 0.82533691
vt 0.85565751 0.48529522
vt 0.85846225 0.71719350
vt 0.88020204 0.62031290
vt 0.89142689 0.79887010
vt 0.89561881 0.35809725
vt 0.89561881 0.49257862
vt 0.89981632 0.65253418
vt 0.91088127 0.76508650
vt 0.91204373 0.68864862
vt 0.91674279 0.72725603
vt 0.93558012 0.48529522
vt 0.95461985 0.36762403
vt 0.96301062 0.46344503
vt 0.97740111 0.43206807
vt 0.97824240 0.39620435
vn 0.33193931 -0.57064862 -0.75111680
vn 0.79796153 -0.57456293 -0.18202978
vn -0.33193931 -0.57064862 -0.75111680
vn -0.79796153 -0.57456293 -0.18202978
vn 0.40818763 0.16066405 -0.89864894
vn 0.90454568 0.37177059 -0.20876718
vn -0.40818763 0.16066405 -0.89864894
vn -0.71918479 0.67470127 -0.16598629
vn -0.39838084 -0.47460270 0.78488533
vn 0.39838084 -0.47460270 0.78488533
vn 0.49084566 0.15168840 0.85794007
vn -0.49084566 0.15168840 0.85794007
vn 0.64182389 -0.57872412 -0.50313069
vn -4.9501554e-16 -0.55973021 -0.82867490
vn 0.39662538 -0.28625465 -0.87220788
vn 0.94240300 -0.25504997 -0.21639337
vn -0.64182389 -0.57872412 -0.50313069
vn -0.39662538 -0.28625465 -0.87220788
vn -0.94240300 -0.25504997 -0.21639337
vn 0.57706288 0.68038339 -0.45174868
vn -5.3993658e-16 0.55951079 -0.82882307
vn -0.65414612 0.55664530 -0.51209263
vn -1.4723806e-17 -0.41179134 0.91127816
vn -0.78033328 -0.56147560 0.27536361
vn 0.48893811 -0.15144969 0.85907073
vn 0.78033328 -0.56147560 0.27536361
vn 2.9407742e-17 0.55351626 0.83283837
vn 0.68501554 0.68877635 0.23736228
vn -0.48893811 -0.15144969 0.85907073
vn -0.78082938 0.56311764 0.27056238
vn -0.75755834 -0.27591974 -0.59158572
vn 0.75755834 -0.27591974 -0.59158572
vn 2.1083650e-17 -0.10129737 0.99485619
vn -6.9636265e-16 -0.28323289 -0.95905116
vn 0.91959144 -0.22446832 0.32243690
vn -0.91959144 -0.22446832 0.32243690
vn -9.0264895e-16 -0.84903319 0.52833952
vn -0.20939420 -0.87345402 0.43958179
vn -0.42226270 -0.89405697 0.14952038
vn -0.46533754 -0.87915719 -0.10268205
vn -0.39901316 -0.86306572 -0.30968704
vn -0.21722007 -0.84175306 -0.49423398
vn -9.5348993e-17 -0.82878364 -0.55956920
vn 0.21722007 -0.84175306 -0.49423398
vn 0.39901316 -0.86306572 -0.30968704
vn 0.46533754 -0.87915719 -0.10268205
vn 0.42226270 -0.89405697 0.14952038
vn 0.20939420 -0.87345402 0.43958179
vn 0.50311704 -0.57387539 -0.64617357
vn 0.15592829 -0.56033166 -0.81345854
vn -0.50311704 -0.57387539 -0.64617357
vn 0.16121604 -0.41904047 0.89354042
vn -0.82273445 -0.56826942 1.3337871e-2
vn 0.82273445 -0.56826942 1.3337871e-2
vn 0.74147086 -0.57479730 -0.34616330
vn -0.15592829 -0.56033166 -0.81345854
vn -0.74147086 -0.57479730 -0.34616330
vn -0.16121604 -0.41904047 0.89354042
vn -0.63532689 -0.51882991 0.57199237
vn 0.63532689 -0.51882991 0.57199237
vn -8.3017545e-2 -0.90368960 0.42006332
vn -1.0807184e-15 -0.72245207 0.69142100
vn -0.27832590 -0.92675808 0.25229776
vn -0.28078119 -0.76311939 0.58207450
vn -0.37962764 -0.92508058 1.0429750e-2
vn -0.57132712 -0.79588079 0.20039735
vn -0.36719295 -0.91370311 -0.17411482
vn -0.62201073 -0.76996614 -0.14231934
vn -0.26620026 -0.90055999 -0.34369917
vn -0.52446758 -0.74460372 -0.41291532
vn -9.0478031e-2 -0.88662086 -0.45356056
vn -0.28058763 -0.71232159 -0.64332615
vn 9.0478031e-2 -0.88662086 -0.45356056
vn -2.0894723e-17 -0.69248108 -0.72143603
vn 0.26620026 -0.90055999 -0.34369917
vn 0.28058763 -0.71232159 -0.64332615
vn 0.36719295 -0.91370311 -0.17411482
vn 0.52446758 -0.74460372 -0.41291532
vn 0.37962764 -0.92508058 1.0429750e-2
vn 0.62201073 -0.76996614 -0.14231934
vn 0.27832590 -0.92675808 0.25229776
vn 0.57132712 -0.79588079 0.20039735
vn 8.3017545e-2 -0.90368960 0.42006332
vn 0.28078119 -0.76311939 0.58207450
vn -4.0110502e-16 -0.99954144 -3.0280358e-2
vn -0.11894288 -0.73930122 0.66278677
vn -0.44653233 -0.79636451 0.40793681
vn -0.61114243 -0.79144275 1.1104166e-2
vn -0.58284775 -0.76563638 -0.27219375
vn -0.41414800 -0.73688068 -0.53431105
vn -0.13317158 -0.70590812 -0.69567165
vn 0.13317158 -0.70590812 -0.69567165
vn 0.41414800 -0.73688068 -0.53431105
vn 0.58284775 -0.76563638 -0.27219375
vn 0.61114243 -0.79144275 1.1104166e-2
vn 0.44653233 -0.79636451 0.40793681
vn 0.11894288 -0.73930122 0.66278677
vn -0.87147058 -0.28177706 -0.40142335
vn -0.59197885 -0.30157240 -0.74740560
vn 0.59197885 -0.30157240 -0.74740560
vn 0.87147058 -0.28177706 -0.40142335
vn 0.16387506 -9.9988740e-2 0.98140064
vn -0.16387506 -9.9988740e-2 0.98140064
vn -0.17314312 -0.30497904 -0.93648772
vn 0.17314312 -0.30497904 -0.93648772
vn 0.96685558 -0.25505294 -1.1759349e-2
vn 0.74992994 -0.18660296 0.63465300
vn -0.96685558 -0.25505294 -1.1759349e-2
vn -0.74992994 -0.18660296 0.63465300
g Cube4_Cube4_auv
usemtl Cube4_auv
s 1
f 1/124/1 92/106/92 50/109/50
f 1/124/1 93/121/93 76/113/76
f 1/48/1 100/23/100 49/47/49
f 1/48/1 105/25/105 15/24/15
f 2/142/2 94/129/94 55/140/55
f 2/142/2 95/135/95 80/132/80
f 2/45/2 101/21/101 16/20/16
f 2/45/2 106/19/106 54/42/54
f 3/78/3 90/81/90 51/74/51
f 3/78/3 91/94/91 72/87/72
f 3/53/3 99/29/99 18/28/18
f 3/53/3 104/27/104 56/52/56
f 4/65/4 88/70/88 53/64/53
f 4/65/4 89/75/89 68/72/68
f 4/57/4 98/31/98 57/56/57
f 4/57/4 108/33/108 19/32/19
f 5/144/5 21/139/21 20/146/20
f 5/6/5 100/23/100 15/24/15
f 5/6/5 105/25/105 21/7/21
f 6/147/6 20/146/20 8/119/8
f 6/2/6 101/21/101 20/5/20
f 6/2/6 106/19/106 16/20/16
f 7/8/7 99/29/99 22/9/22
f 7/8/7 104/27/104 18/28/18
f 8/119/8 20/146/20 22/125/22
f 8/119/8 28/148/28 6/147/6
f 8/10/8 98/31/98 19/32/19
f 8/10/8 108/33/108 30/11/30
f 9/71/9 86/90/86 58/84/58
f 9/71/9 87/76/87 64/79/64
f 9/61/9 103/37/103 29/36/29
f 9/61/9 109/35/109 59/60/59
f 10/133/10 96/128/96 60/137/60
f 10/133/10 97/110/97 84/123/84
f 10/44/10 102/16/102 52/43/52
f 10/44/10 107/18/107 25/17/25
f 11/145/11 28/148/28 27/138/27
f 11/1/11 102/16/102 25/17/25
f 11/1/11 107/18/107 28/4/28
f 12/12/12 103/37/103 27/13/27
f 12/12/12 109/35/109 29/36/29
f 13/136/13 93/121/93 49/130/49
f 13/136/13 94/129/94 78/126/78
f 13/49/13 100/23/100 32/22/32
f 13/49/13 101/21/101 55/46/55
f 14/98/14 91/94/91 56/91/56
f 14/98/14 92/106/92 74/99/74
f 14/51/14 104/27/104 34/26/34
f 14/51/14 105/25/105 50/50/50
f 15/24/15 100/23/100 1/48/1
f 15/24/15 105/25/105 5/6/5
f 16/20/16 101/21/101 6/2/6
f 16/20/16 106/19/106 2/45/2
f 17/69/17 89/75/89 57/67/57
f 17/69/17 90/81/90 70/77/70
f 17/55/17 98/31/98 31/30/31
f 17/55/17 99/29/99 51/54/51
f 18/28/18 99/29/99 7/8/7
f 18/28/18 104/27/104 3/53/3
f 19/32/19 98/31/98 4/57/4
f 19/32/19 108/33/108 8/10/8
f 20/146/20 21/139/21 22/125/22
f 20/5/20 100/23/100 5/6/5
f 20/5/20 101/21/101 32/22/32
f 21/7/21 104/27/104 7/8/7
f 21/7/21 105/25/105 34/26/34
f 22/125/22 21/139/21 7/134/7
f 22/9/22 98/31/98 8/10/8
f 22/9/22 99/29/99 31/30/31
f 23/103/23 86/90/86 62/102/62
f 23/103/23 97/110/97 52/116/52
f 23/40/23 102/16/102 33/14/33
f 23/63/23 103/37/103 58/62/58
f 24/66/24 87/76/87 59/68/59
f 24/66/24 88/70/88 66/73/66
f 24/59/24 108/33/108 53/58/53
f 24/59/24 109/35/109 36/34/36
f 25/17/25 102/16/102 10/44/10
f 25/17/25 107/18/107 11/1/11
f 26/141/26 95/135/95 54/143/54
f 26/141/26 96/128/96 82/131/82
f 26/39/26 106/19/106 35/15/35
f 26/39/26 107/18/107 60/41/60
f 27/138/27 30/118/30 12/127/12
f 27/3/27 102/16/102 11/1/11
f 27/13/27 103/37/103 33/38/33
f 28/148/28 30/118/30 27/138/27
f 28/4/28 106/19/106 6/2/6
f 28/4/28 107/18/107 35/15/35
f 29/36/29 103/37/103 12/12/12
f 29/36/29 109/35/109 9/61/9
f 30/118/30 28/148/28 8/119/8
f 30/11/30 108/33/108 36/34/36
f 30/11/30 109/35/109 12/12/12
f 31/30/31 98/31/98 22/9/22
f 31/30/31 99/29/99 17/55/17
f 32/22/32 100/23/100 20/5/20
f 32/22/32 101/21/101 13/49/13
f 33/14/33 102/16/102 27/3/27
f 33/38/33 103/37/103 23/63/23
f 34/26/34 104/27/104 21/7/21
f 34/26/34 105/25/105 14/51/14
f 35/15/35 106/19/106 28/4/28
f 35/15/35 107/18/107 26/39/26
f 36/34/36 108/33/108 24/59/24
f 36/34/36 109/35/109 30/11/30
f 37/101/37 85/97/85 83/105/83
f 37/101/37 86/90/86 61/95/61
f 37/101/37 97/110/97 62/102/62
f 38/89/38 85/97/85 61/95/61
f 38/89/38 86/90/86 64/79/64
f 38/89/38 87/76/87 63/88/63
f 39/82/39 85/97/85 63/88/63
f 39/82/39 87/76/87 66/73/66
f 39/82/39 88/70/88 65/85/65
f 40/80/40 85/97/85 65/85/65
f 40/80/40 88/70/88 68/72/68
f 40/80/40 89/75/89 67/86/67
f 41/83/41 85/97/85 67/86/67
f 41/83/41 89/75/89 70/77/70
f 41/83/41 90/81/90 69/92/69
f 42/93/42 85/97/85 69/92/69
f 42/93/42 90/81/90 72/87/72
f 42/93/42 91/94/91 71/96/71
f 43/100/43 85/97/85 71/96/71
f 43/100/43 91/94/91 74/99/74
f 43/100/43 92/106/92 73/104/73
f 44/107/44 85/97/85 73/104/73
f 44/107/44 92/106/92 76/113/76
f 44/107/44 93/121/93 75/108/75
f 45/117/45 85/97/85 75/108/75
f 45/117/45 93/121/93 78/126/78
f 45/117/45 94/129/94 77/114/77
f 46/122/46 85/97/85 77/114/77
f 46/122/46 94/129/94 80/132/80
f 46/122/46 95/135/95 79/115/79
f 47/120/47 85/97/85 79/115/79
f 47/120/47 95/135/95 82/131/82
f 47/120/47 96/128/96 81/112/81
f 48/111/48 85/97/85 81/112/81
f 48/111/48 96/128/96 84/123/84
f 48/111/48 97/110/97 83/105/83
f 49/130/49 93/121/93 1/124/1
f 49/47/49 100/23/100 13/49/13
f 50/109/50 92/106/92 14/98/14
f 50/50/50 105/25/105 1/48/1
f 51/74/51 90/81/90 17/69/17
f 51/54/51 99/29/99 3/53/3
f 52/116/52 97/110/97 10/133/10
f 52/43/52 102/16/102 23/40/23
f 53/64/53 88/70/88 24/66/24
f 53/58/53 108/33/108 4/57/4
f 54/143/54 95/135/95 2/142/2
f 54/42/54 106/19/106 26/39/26
f 55/140/55 94/129/94 13/136/13
f 55/46/55 101/21/101 2/45/2
f 56/91/56 91/94/91 3/78/3
f 56/52/56 104/27/104 14/51/14
f 57/67/57 89/75/89 4/65/4
f 57/56/57 98/31/98 17/55/17
f 58/84/58 86/90/86 23/103/23
f 58/62/58 103/37/103 9/61/9
f 59/68/59 87/76/87 9/71/9
f 59/60/59 109/35/109 24/59/24
f 60/137/60 96/128/96 26/141/26
f 60/41/60 107/18/107 10/44/10
f 61/95/61 85/97/85 37/101/37
f 61/95/61 86/90/86 38/89/38
f 62/102/62 86/90/86 37/101/37
f 62/102/62 97/110/97 23/103/23
f 63/88/63 85/97/85 38/89/38
f 63/88/63 87/76/87 39/82/39
f 64/79/64 86/90/86 9/71/9
f 64/79/64 87/76/87 38/89/38
f 65/85/65 85/97/85 39/82/39
f 65/85/65 88/70/88 40/80/40
f 66/73/66 87/76/87 24/66/24
f 66/73/66 88/70/88 39/82/39
f 67/86/67 85/97/85 40/80/40
f 67/86/67 89/75/89 41/83/41
f 68/72/68 88/70/88 4/65/4
f 68/72/68 89/75/89 40/80/40
f 69/92/69 85/97/85 41/83/41
f 69/92/69 90/81/90 42/93/42
f 70/77/70 89/75/89 17/69/17
f 70/77/70 90/81/90 41/83/41
f 71/96/71 85/97/85 42/93/42
f 71/96/71 91/94/91 43/100/43
f 72/87/72 90/81/90 3/78/3
f 72/87/72 91/94/91 42/93/42
f 73/104/73 85/97/85 43/100/43
f 73/104/73 92/106/92 44/107/44
f 74/99/74 91/94/91 14/98/14
f 74/99/74 92/106/92 43/100/43
f 75/108/75 85/97/85 44/107/44
f 75/108/75 93/121/93 45/117/45
f 76/113/76 92/106/92 1/124/1
f 76/113/76 93/121/93 44/107/44
f 77/114/77 85/97/85 45/117/45
f 77/114/77 94/129/94 46/122/46
f 78/126/78 93/121/93 13/136/13
f 78/126/78 94/129/94 45/117/45
f 79/115/79 85/97/85 46/122/46
f 79/115/79 95/135/95 47/120/47
f 80/132/80 94/129/94 2/142/2
f 80/132/80 95/135/95 46/122/46
f 81/112/81 85/97/85 47/120/47
f 81/112/81 96/128/96 48/111/48
f 82/131/82 95/135/95 26/141/26
f 82/131/82 96/128/96 47/120/47
f 83/105/83 85/97/85 48/111/48
f 83/105/83 97/110/97 37/101/37
f 84/123/84 96/128/96 10/133/10
f 84/123/84 97/110/97 48/111/48
