# Exported from Wings 3D 2.1.6
mtllib snakebody.mtl
o Cube4
#36 vertices, 68 faces
v 0.31956622 -1.00000000 0.11415223
v 0.65400423 -1.00000000 0.53980400
v -0.31956622 -1.00000000 0.11415223
v -0.65400423 -1.00000000 0.53980400
v 0.31956622 1.00000000 0.11415223
v 0.65400423 1.00000000 0.53980400
v -0.31956622 1.00000000 0.11415223
v -0.65400423 1.00000000 0.53980400
v -0.47182492 -1.00000000 1.05515609
v 0.47182492 -1.00000000 1.05515609
v 0.47182492 1.00000000 1.05515609
v -0.47182492 1.00000000 1.05515609
v 0.53892498 -1.00000000 0.28888582
v 3.6325881e-17 -1.00000000 5.5907707e-2
v 0.31956622 -9.3487856e-17 0.11415223
v 0.65400423 -1.1396628e-16 0.53980400
v -0.53892498 -1.00000000 0.28888582
v -0.31956622 -5.4352280e-17 0.11415223
v -0.65400423 -3.3873858e-17 0.53980400
v 0.53892498 1.00000000 0.28888582
v 1.5879056e-16 1.00000000 5.5907707e-2
v -0.53892498 1.00000000 0.28888582
v 8.1511958e-17 -1.00000000 1.13134068
v -0.66073194 -1.00000000 0.82660231
v 0.47182492 -1.0281101e-16 1.05515609
v 0.66073194 -1.00000000 0.82660231
v 2.0397664e-16 1.00000000 1.13134068
v 0.66073194 1.00000000 0.82660231
v -0.47182492 -4.5029124e-17 1.05515609
v -0.66073194 1.00000000 0.82660231
v -0.53892498 -4.0920430e-17 0.28888582
v 0.53892498 -1.0691971e-16 0.28888582
v 1.4274430e-16 -7.3920068e-17 1.13134068
v 9.7558221e-17 -7.3920068e-17 5.5907707e-2
v 0.66073194 -1.1437823e-16 0.82660231
v -0.66073194 -3.3461905e-17 0.82660231
vt 0.0000000e+0 0.15416494
vt 0.0000000e+0 0.26678690
vt 1.6653345e-16 1.1102230e-16
vt 1.6653345e-16 0.22437180
vt 1.6653345e-16 0.31950973
vt 1.6653345e-16 0.39550814
vt 3.8857806e-16 0.50000000
vt 4.9960036e-16 0.60449186
vt 6.1062266e-16 0.68049027
vt 6.6613381e-16 0.73321310
vt 7.2164497e-16 0.77562820
vt 7.2164497e-16 0.84583506
vt 7.2164497e-16 1.00000000
vt 0.26525848 2.2204460e-16
vt 0.26525848 0.22437180
vt 0.26525848 0.15416494
vt 0.26525848 0.26678690
vt 0.26525848 0.31950973
vt 0.26525848 0.39550814
vt 0.26525848 0.50000000
vt 0.26525848 0.60449186
vt 0.26525848 0.68049027
vt 0.26525848 0.73321310
vt 0.26525848 0.77562820
vt 0.26525848 0.84583506
vt 0.26525848 1.00000000
vt 0.53051696 0.22437180
vt 0.53051696 0.0000000e+0
vt 0.53051696 0.15416494
vt 0.53051696 0.26678690
vt 0.53051696 0.39550814
vt 0.53051696 0.31950973
vt 0.53051696 0.50000000
vt 0.53051696 0.60449186
vt 0.53051696 0.68049027
vt 0.53051696 0.73321310
vt 0.53051696 0.77562820
vt 0.53051696 0.84583506
vt 0.53051696 0.11382699
vt 0.53051696 0.27266202
vt 0.53051696 1.00000000
vt 0.53270932 0.23030363
vt 0.53270932 7.1468594e-2
vt 0.57021024 0.19324451
vt 0.57021024 3.4409477e-2
vt 0.59207616 0.14758302
vt 0.59207616 0.30641805
vt 0.64169276 0.16743740
vt 0.64169276 8.6023691e-3
vt 0.74582992 0.15883503
vt 0.74582992 0.15883503
vt 0.74582992 0.31767006
vt 0.74582992 0.0000000e+0
vt 0.84996709 0.16743740
vt 0.84996709 8.6023691e-3
vt 0.89958369 0.14758302
vt 0.89958369 0.30641805
vt 0.92144961 0.19324451
vt 0.92144961 3.4409477e-2
vt 0.95895052 0.23030363
vt 0.95895052 7.1468594e-2
vt 0.96114289 0.11382699
vt 0.96114289 0.27266202
vn 0.40055912 -0.24961220 -0.88161564
vn 0.77363097 -0.60798162 -0.17847544
vn -0.40055912 -0.24961220 -0.88161564
vn -0.77363097 -0.60798162 -0.17847544
vn 0.40055912 0.24961220 -0.88161564
vn 0.86785600 0.45468750 -0.20021300
vn -0.40055912 0.24961220 -0.88161564
vn -0.68180532 0.71442349 -0.15729141
vn -0.48012026 -0.25807461 0.83838060
vn 0.48012026 -0.25807461 0.83838060
vn 0.48012026 0.25807461 0.83838060
vn -0.48012026 0.25807461 0.83838060
vn 0.42846609 -0.83902332 -0.33534561
vn -3.6360955e-16 -0.83619668 -0.54842969
vn 0.41365294 -6.4789013e-17 -0.91043465
vn 0.97440631 -1.0265950e-16 -0.22479399
vn -0.34442739 -0.89927805 -0.26957142
vn -0.41365294 5.5064087e-18 -0.91043465
vn -0.97440631 4.9392342e-17 -0.22479399
vn 0.34442739 0.89927805 -0.26957142
vn -3.9455504e-16 0.83619668 -0.54842969
vn -0.42846609 0.83902332 -0.33534561
vn -7.7282819e-18 -0.83532209 0.54976086
vn -0.50055236 -0.84814549 0.17348358
vn 0.49695461 -5.7764697e-17 0.86777654
vn 0.40082751 -0.90555972 0.13892051
vn 1.5456564e-17 0.83532209 0.54976086
vn 0.40082751 0.90555972 0.13892051
vn -0.49695461 3.8782200e-18 0.86777654
vn -0.50055236 0.84814549 0.17348358
vn -0.78748330 7.7118220e-17 -0.61633599
vn 0.78748330 -8.9836205e-17 -0.61633599
vn -9.8402737e-17 -7.8034989e-34 1.00000000
vn -6.7710762e-16 -5.4283693e-18 -1.00000000
vn 0.94486029 -1.0158591e-16 0.32747372
vn -0.94486029 7.6609097e-17 0.32747372
g Cube4_Cube4_auv
usemtl Cube4_auv
s 1
f 1/31/1 32/18/32 13/32/13
f 1/31/1 34/20/34 15/19/15
f 2/60/2 17/44/17 13/58/13
f 2/60/2 26/63/26 4/42/4
f 2/30/2 32/18/32 16/17/16
f 2/30/2 35/15/35 26/27/26
f 3/48/3 14/50/14 17/44/17
f 3/34/3 31/22/31 18/21/18
f 3/34/3 34/20/34 14/33/14
f 4/42/4 17/44/17 2/60/2
f 4/42/4 26/63/26 24/40/24
f 4/36/4 31/22/31 17/35/17
f 4/36/4 36/24/36 19/23/19
f 5/49/5 21/53/21 20/45/20
f 5/6/5 32/18/32 15/19/15
f 5/6/5 34/20/34 21/7/21
f 6/43/6 20/45/20 8/61/8
f 6/2/6 32/18/32 20/5/20
f 6/2/6 35/15/35 16/17/16
f 7/8/7 31/22/31 22/9/22
f 7/8/7 34/20/34 18/21/18
f 8/61/8 20/45/20 22/59/22
f 8/61/8 28/39/28 6/43/6
f 8/10/8 31/22/31 19/23/19
f 8/10/8 36/24/36 30/11/30
f 9/47/9 24/40/24 23/52/23
f 9/38/9 33/26/33 29/25/29
f 9/38/9 36/24/36 24/37/24
f 10/29/10 33/14/33 23/28/23
f 10/29/10 35/15/35 25/16/25
f 11/46/11 28/39/28 27/51/27
f 11/1/11 33/14/33 25/16/25
f 11/1/11 35/15/35 28/4/28
f 12/12/12 33/26/33 27/13/27
f 12/12/12 36/24/36 29/25/29
f 13/58/13 14/50/14 1/54/1
f 13/58/13 17/44/17 14/50/14
f 13/32/13 32/18/32 2/30/2
f 14/33/14 34/20/34 1/31/1
f 15/19/15 32/18/32 1/31/1
f 15/19/15 34/20/34 5/6/5
f 16/17/16 32/18/32 6/2/6
f 16/17/16 35/15/35 2/30/2
f 17/35/17 31/22/31 3/34/3
f 18/21/18 31/22/31 7/8/7
f 18/21/18 34/20/34 3/34/3
f 19/23/19 31/22/31 4/36/4
f 19/23/19 36/24/36 8/10/8
f 20/45/20 21/53/21 22/59/22
f 20/5/20 32/18/32 5/6/5
f 21/7/21 34/20/34 7/8/7
f 22/59/22 21/53/21 7/55/7
f 22/9/22 31/22/31 8/10/8
f 23/52/23 26/63/26 10/57/10
f 23/41/23 33/26/33 9/38/9
f 24/40/24 26/63/26 23/52/23
f 24/37/24 36/24/36 4/36/4
f 25/16/25 33/14/33 10/29/10
f 25/16/25 35/15/35 11/1/11
f 26/27/26 35/15/35 10/29/10
f 27/51/27 30/62/30 12/56/12
f 27/3/27 33/14/33 11/1/11
f 28/39/28 30/62/30 27/51/27
f 28/4/28 35/15/35 6/2/6
f 29/25/29 33/26/33 12/12/12
f 29/25/29 36/24/36 9/38/9
f 30/62/30 28/39/28 8/61/8
f 30/11/30 36/24/36 12/12/12
