# Exported from Wings 3D 2.1.6
mtllib thrust.mtl
o Cylinder2
#98 vertices, 192 faces
v 0.67181498 3.0982835e-17 1.75472365
v 0.62067611 -0.11466324 1.75472365
v 0.47504493 -0.21187004 1.75472365
v 0.25709246 -0.27682155 1.75472365
v 3.3238213e-17 -0.29962948 1.75472365
v -0.25709246 -0.27682155 1.75472365
v -0.47504493 -0.21187004 1.75472365
v -0.62067611 -0.11466324 1.75472365
v -0.67181498 -3.9896771e-17 1.75472365
v -0.62067611 0.11466324 1.75472365
v -0.47504493 0.21187004 1.75472365
v -0.25709246 0.27682155 1.75472365
v -1.4304795e-16 0.29962948 1.75472365
v 0.25709246 0.27682155 1.75472365
v 0.47504493 0.21187004 1.75472365
v 0.62067611 0.11466324 1.75472365
v 0.67181498 8.2574870e-18 1.63543032
v 0.62067611 -0.11466324 1.63543032
v 0.47504493 -0.21187004 1.63543032
v 0.25709246 -0.27682155 1.63543032
v 2.8439583e-17 -0.29962948 1.63543032
v -0.25709246 -0.27682155 1.63543032
v -0.47504493 -0.21187004 1.63543032
v -0.62067611 -0.11466324 1.63543032
v -0.67181498 -6.4762309e-17 1.63543032
v -0.62067611 0.11466324 1.63543032
v -0.47504493 0.21187004 1.63543032
v -0.25709246 0.27682155 1.63543032
v -1.4304795e-16 0.29962948 1.63543032
v 0.25709246 0.27682155 1.63543032
v 0.47504493 0.21187004 1.63543032
v 0.62067611 0.11466324 1.63543032
v 0.56129185 -4.9794960e-2 1.77559999
v 0.56129185 4.9794960e-2 1.77559999
v 0.76319457 1.1193166e-17 1.69507699
v 0.47584026 -0.14180405 1.77559999
v 0.70509984 -0.13025962 1.69507699
v 0.31794629 -0.21222475 1.77559999
v 0.53966006 -0.24068838 1.69507699
v 0.11164789 -0.25033617 1.77559999
v 0.29206192 -0.31447453 1.69507699
v -0.11164789 -0.25033617 1.77559999
v 3.4753663e-17 -0.34038478 1.69507699
v -0.31794629 -0.21222475 1.77559999
v -0.29206192 -0.31447453 1.69507699
v -0.47584026 -0.14180405 1.77559999
v -0.53966006 -0.24068838 1.69507699
v -0.56129185 -4.9794960e-2 1.77559999
v -0.70509984 -0.13025962 1.69507699
v -0.56129185 4.9794960e-2 1.77559999
v -0.76319457 -6.1038222e-17 1.69507699
v -0.47584026 0.14180405 1.77559999
v -0.70509984 0.13025962 1.69507699
v -0.31794629 0.21222475 1.77559999
v -0.53966006 0.24068838 1.69507699
v -0.11164789 0.25033617 1.77559999
v -0.29206192 0.31447453 1.69507699
v 0.11164789 0.25033617 1.77559999
v -1.5419242e-16 0.34038478 1.69507699
v 0.31794629 0.21222475 1.77559999
v 0.29206192 0.31447453 1.69507699
v 0.47584026 0.14180405 1.77559999
v 0.53966006 0.24068838 1.69507699
v 0.70509984 0.13025962 1.69507699
v 0.56129185 -4.9794960e-2 1.61455399
v 0.56129185 4.9794960e-2 1.61455399
v 0.47584026 -0.14180405 1.61455399
v 0.31794629 -0.21222475 1.61455399
v 0.11164789 -0.25033617 1.61455399
v -0.11164789 -0.25033617 1.61455399
v -0.31794629 -0.21222475 1.61455399
v -0.47584026 -0.14180405 1.61455399
v -0.56129185 -4.9794960e-2 1.61455399
v -0.56129185 4.9794960e-2 1.61455399
v -0.47584026 0.14180405 1.61455399
v -0.31794629 0.21222475 1.61455399
v -0.11164789 0.25033617 1.61455399
v 0.11164789 0.25033617 1.61455399
v 0.31794629 0.21222475 1.61455399
v 0.47584026 0.14180405 1.61455399
v -5.1621689e-17 2.0824018e-17 1.80244099
v -3.5426310e-17 -3.7160407e-17 1.58771299
v 0.74838914 6.6393279e-2 1.69507699
v 0.63445368 0.18907206 1.69507699
v 0.42392839 0.28296634 1.69507699
v 0.14886386 0.33378156 1.69507699
v -0.14886386 0.33378156 1.69507699
v -0.42392839 0.28296634 1.69507699
v -0.63445368 0.18907206 1.69507699
v -0.74838914 6.6393279e-2 1.69507699
v -0.74838914 -6.6393279e-2 1.69507699
v -0.63445368 -0.18907206 1.69507699
v -0.42392839 -0.28296634 1.69507699
v -0.14886386 -0.33378156 1.69507699
v 0.14886386 -0.33378156 1.69507699
v 0.42392839 -0.28296634 1.69507699
v 0.63445368 -0.18907206 1.69507699
v 0.74838914 -6.6393279e-2 1.69507699
vt 3.2042614e-3 0.73864705
vt 3.3895277e-3 0.24625686
vt 1.2838151e-2 0.69544497
vt 1.2838151e-2 0.78184914
vt 1.3023417e-2 0.20305477
vt 1.3023417e-2 0.28945894
vt 4.1006483e-2 0.82340695
vt 4.1006483e-2 0.65388716
vt 4.1191749e-2 0.16149697
vt 4.1191749e-2 0.33101675
vt 6.2664931e-2 0.73864705
vt 6.2850198e-2 0.24625686
vt 8.6975921e-2 0.86167619
vt 8.6975921e-2 0.61561792
vt 8.7161187e-2 0.12322772
vt 8.7161187e-2 0.36928599
vt 9.5940979e-2 0.81325839
vt 9.5940979e-2 0.66403572
vt 9.6126245e-2 0.17164552
vt 9.6126245e-2 0.32086819
vt 0.13458230 0.77104862
vt 0.13458230 0.70624549
vt 0.13476756 0.21385529
vt 0.13476756 0.27865842
vt 0.14865810 0.89526291
vt 0.14865810 0.58203120
vt 0.14884337 8.9641000e-2
vt 0.14884337 0.40287272
vt 0.19018562 0.83091890
vt 0.19018562 0.64637520
vt 0.19037089 0.15398501
vt 0.19037089 0.33852871
vt 0.19070314 0.87651082
vt 0.19070314 0.60078328
vt 0.19088841 0.10839309
vt 0.19088841 0.38412063
vt 0.22396466 0.92277316
vt 0.22396466 0.55452094
vt 0.22414992 6.2130748e-2
vt 0.22414992 0.43038297
vt 0.29292718 0.87674164
vt 0.29292718 0.60055247
vt 0.29311244 0.10816228
vt 0.29311244 0.38435144
vt 0.30977013 0.94327553
vt 0.30977013 0.53401857
vt 0.30995540 0.45088534
vt 0.30995540 4.1628378e-2
vt 0.33252475 0.91877475
vt 0.33252475 0.55851936
vt 0.33271001 6.6129164e-2
vt 0.33271001 0.42638455
vt 0.40294907 0.95583861
vt 0.40294907 0.52145550
vt 0.40313434 2.9065302e-2
vt 0.40313434 0.46344841
vt 0.42716549 0.90154072
vt 0.42716549 0.57575339
vt 0.42735075 8.3363191e-2
vt 0.42735075 0.40915053
vt 0.49981473 0.93361587
vt 0.49981473 0.96013532
vt 0.49981473 0.73864705
vt 0.49981473 0.51715878
vt 0.49981473 0.54367824
vt 0.50000000 2.4768588e-2
vt 0.50000000 5.1288047e-2
vt 0.50000000 0.24625686
vt 0.50000000 0.44122567
vt 0.50000000 0.46774513
vt 0.57246398 0.57575339
vt 0.57246398 0.90154072
vt 0.57264925 8.3363191e-2
vt 0.57264925 0.40915053
vt 0.59668040 0.95583861
vt 0.59668040 0.52145550
vt 0.59686566 2.9065302e-2
vt 0.59686566 0.46344841
vt 0.66710472 0.55851936
vt 0.66710472 0.91877475
vt 0.66728999 6.6129164e-2
vt 0.66728999 0.42638455
vt 0.68985933 0.53401857
vt 0.68985933 0.94327553
vt 0.69004460 4.1628378e-2
vt 0.69004460 0.45088534
vt 0.70670229 0.60055247
vt 0.70670229 0.87674164
vt 0.70688756 0.10816228
vt 0.70688756 0.38435144
vt 0.77566481 0.55452094
vt 0.77566481 0.92277316
vt 0.77585008 6.2130748e-2
vt 0.77585008 0.43038297
vt 0.80892632 0.60078328
vt 0.80892632 0.87651082
vt 0.80911159 0.10839309
vt 0.80911159 0.38412063
vt 0.80944384 0.83091890
vt 0.80944384 0.64637520
vt 0.80962911 0.15398501
vt 0.80962911 0.33852871
vt 0.85097137 0.89526291
vt 0.85097137 0.58203120
vt 0.85115663 8.9641000e-2
vt 0.85115663 0.40287272
vt 0.86504717 0.70624549
vt 0.86504717 0.77104862
vt 0.86523244 0.21385529
vt 0.86523244 0.27865842
vt 0.90368849 0.81325839
vt 0.90368849 0.66403572
vt 0.90387376 0.17164552
vt 0.90387376 0.32086819
vt 0.91265355 0.86167619
vt 0.91265355 0.61561792
vt 0.91283881 0.12322772
vt 0.91283881 0.36928599
vt 0.93696454 0.73864705
vt 0.93714980 0.24625686
vt 0.95862298 0.82340695
vt 0.95862298 0.65388716
vt 0.95880825 0.16149697
vt 0.95880825 0.33101675
vt 0.98679132 0.78184914
vt 0.98679132 0.69544497
vt 0.98697658 0.20305477
vt 0.98697658 0.28945894
vt 0.99642521 0.73864705
vt 0.99661047 0.24625686
vn 0.41056189 -4.0473949e-16 0.91183273
vn 0.38533639 -0.26349538 0.88435629
vn 0.29179919 -0.50896779 0.80981790
vn 0.14888402 -0.65835485 0.73783632
vn 1.1770662e-16 -0.70275663 0.71143033
vn -0.14888402 -0.65835485 0.73783632
vn -0.29179919 -0.50896779 0.80981790
vn -0.38533639 -0.26349538 0.88435629
vn -0.41056189 -3.5976844e-16 0.91183273
vn -0.38533639 0.26349538 0.88435629
vn -0.29179919 0.50896779 0.80981790
vn -0.14888402 0.65835485 0.73783632
vn -1.9617770e-17 0.70275663 0.71143033
vn 0.14888402 0.65835485 0.73783632
vn 0.29179919 0.50896779 0.80981790
vn 0.38533639 0.26349538 0.88435629
vn 0.41056189 8.5445004e-16 -0.91183273
vn 0.38533639 -0.26349538 -0.88435629
vn 0.29179919 -0.50896779 -0.80981790
vn 0.14888402 -0.65835485 -0.73783632
vn 7.8471080e-17 -0.70275663 -0.71143033
vn -0.14888402 -0.65835485 -0.73783632
vn -0.29179919 -0.50896779 -0.80981790
vn -0.38533639 -0.26349538 -0.88435629
vn -0.41056189 -3.5976844e-16 -0.91183273
vn -0.38533639 0.26349538 -0.88435629
vn -0.29179919 0.50896779 -0.80981790
vn -0.14888402 0.65835485 -0.73783632
vn -1.9617770e-17 0.70275663 -0.71143033
vn 0.14888402 0.65835485 -0.73783632
vn 0.29179919 0.50896779 -0.80981790
vn 0.38533639 0.26349538 -0.88435629
vn 0.29181713 -0.11806612 0.94915918
vn 0.29181713 0.11806612 0.94915918
vn 1.00000000 3.1172245e-16 -4.1562993e-16
vn 0.23788294 -0.32934574 0.91375220
vn 0.79395535 -0.60797607 2.3444770e-16
vn 0.14801154 -0.46840733 0.87102650
vn 0.46696399 -0.88427633 2.2533998e-17
vn 4.9435673e-2 -0.53083907 0.84602955
vn 0.20787773 -0.97815482 -2.7227672e-16
vn -4.9435673e-2 -0.53083907 0.84602955
vn 2.2409384e-16 -1.00000000 -4.2951320e-16
vn -0.14801154 -0.46840733 0.87102650
vn -0.20787773 -0.97815482 -2.0420754e-16
vn -0.23788294 -0.32934574 0.91375220
vn -0.46696399 -0.88427633 2.3660698e-16
vn -0.29181713 -0.11806612 0.94915918
vn -0.79395535 -0.60797607 5.5681329e-16
vn -0.29181713 0.11806612 0.94915918
vn -1.00000000 -7.6198821e-16 -2.7708662e-16
vn -0.23788294 0.32934574 0.91375220
vn -0.79395535 0.60797607 -2.9305963e-17
vn -0.14801154 0.46840733 0.87102650
vn -0.46696399 0.88427633 -3.3800997e-16
vn -4.9435673e-2 0.53083907 0.84602955
vn -0.20787773 0.97815482 -3.5007007e-16
vn 4.9435673e-2 0.53083907 0.84602955
vn -1.5873314e-16 1.00000000 -1.3072141e-16
vn 0.14801154 0.46840733 0.87102650
vn 0.20787773 0.97815482 -4.2786342e-16
vn 0.23788294 0.32934574 0.91375220
vn 0.46696399 0.88427633 1.5773798e-16
vn 0.79395535 0.60797607 8.2056695e-16
vn 0.29181713 -0.11806612 -0.94915918
vn 0.29181713 0.11806612 -0.94915918
vn 0.23788294 -0.32934574 -0.91375220
vn 0.14801154 -0.46840733 -0.87102650
vn 4.9435673e-2 -0.53083907 -0.84602955
vn -4.9435673e-2 -0.53083907 -0.84602955
vn -0.14801154 -0.46840733 -0.87102650
vn -0.23788294 -0.32934574 -0.91375220
vn -0.29181713 -0.11806612 -0.94915918
vn -0.29181713 0.11806612 -0.94915918
vn -0.23788294 0.32934574 -0.91375220
vn -0.14801154 0.46840733 -0.87102650
vn -4.9435673e-2 0.53083907 -0.84602955
vn 4.9435673e-2 0.53083907 -0.84602955
vn 0.14801154 0.46840733 -0.87102650
vn 0.23788294 0.32934574 -0.91375220
vn -9.9654144e-17 -2.1758547e-18 1.00000000
vn -4.0035726e-17 -3.4813675e-18 -1.00000000
vn 0.91413703 0.40540533 -5.3993718e-16
vn 0.55703928 0.83048615 1.0423221e-16
vn 0.28666376 0.95803126 -1.7521032e-16
vn 8.8687841e-2 0.99605947 8.1469038e-17
vn -8.8687841e-2 0.99605947 4.0734519e-17
vn -0.28666376 0.95803126 -1.3140774e-16
vn -0.55703928 0.83048615 -5.2116103e-16
vn -0.91413703 0.40540533 -1.3498430e-16
vn -0.91413703 -0.40540533 1.2823508e-15
vn -0.55703928 -0.83048615 -5.2116103e-17
vn -0.28666376 -0.95803126 1.3140774e-16
vn -8.8687841e-2 -0.99605947 1.6293808e-16
vn 8.8687841e-2 -0.99605947 4.8881423e-16
vn 0.28666376 -0.95803126 -4.3802581e-17
vn 0.55703928 -0.83048615 1.5634831e-16
vn 0.91413703 -0.40540533 -4.0495289e-16
g Cylinder2_Cylinder2_auv
usemtl Cylinder2_auv
s 1
f 1/119/1 34/108/34 33/107/33
f 1/119/1 35/129/35 34/108/34
f 2/112/2 33/107/33 36/100/36
f 3/95/3 36/100/36 38/87/38
f 4/79/4 38/87/38 40/71/40
f 5/65/5 40/71/40 42/58/42
f 6/50/6 42/58/42 44/42/44
f 7/34/7 44/42/44 46/30/46
f 8/18/8 46/30/46 48/22/48
f 9/11/9 48/22/48 50/21/50
f 10/17/10 50/21/50 52/29/52
f 11/33/11 52/29/52 54/41/54
f 12/49/12 54/41/54 56/57/56
f 13/61/13 56/57/56 58/72/58
f 14/80/14 58/72/58 60/88/60
f 15/96/15 60/88/60 62/99/62
f 16/111/16 34/108/34 64/121/64
f 16/111/16 62/99/62 34/108/34
f 17/12/17 35/2/35 65/23/65
f 18/19/18 37/9/37 67/31/67
f 18/19/18 65/23/65 37/9/37
f 19/35/19 39/27/39 68/43/68
f 19/35/19 67/31/67 39/27/39
f 20/51/20 41/48/41 69/59/69
f 20/51/20 68/43/68 41/48/41
f 21/67/21 43/66/43 70/73/70
f 21/67/21 69/59/69 43/66/43
f 22/81/22 45/85/45 71/89/71
f 22/81/22 70/73/70 45/85/45
f 23/97/23 47/105/47 72/101/72
f 23/97/23 71/89/71 47/105/47
f 24/113/24 49/123/49 73/109/73
f 24/113/24 72/101/72 49/123/49
f 25/120/25 51/130/51 74/110/74
f 25/120/25 73/109/73 51/130/51
f 26/114/26 53/124/53 75/102/75
f 26/114/26 74/110/74 53/124/53
f 27/98/27 55/106/55 76/90/76
f 27/98/27 75/102/75 55/106/55
f 28/82/28 57/86/57 77/74/77
f 28/82/28 76/90/76 57/86/57
f 29/69/29 59/70/59 78/60/78
f 29/69/29 77/74/77 59/70/59
f 30/52/30 61/47/61 79/44/79
f 30/52/30 78/60/78 61/47/61
f 31/36/31 63/28/63 80/32/80
f 31/36/31 79/44/79 63/28/63
f 32/20/32 80/32/80 64/10/64
f 33/107/33 35/129/35 1/119/1
f 34/108/34 62/99/62 81/63/81
f 35/2/35 66/24/66 83/6/83
f 36/100/36 37/122/37 2/112/2
f 37/122/37 33/107/33 2/112/2
f 37/9/37 65/23/65 98/5/98
f 38/87/38 39/104/39 3/95/3
f 39/104/39 36/100/36 3/95/3
f 39/27/39 67/31/67 97/15/97
f 40/71/40 41/83/41 4/79/4
f 41/83/41 38/87/38 4/79/4
f 41/48/41 68/43/68 96/39/96
f 42/58/42 43/64/43 5/65/5
f 43/64/43 40/71/40 5/65/5
f 43/66/43 69/59/69 95/55/95
f 44/42/44 45/46/45 6/50/6
f 45/46/45 42/58/42 6/50/6
f 45/85/45 70/73/70 94/77/94
f 46/30/46 47/26/47 7/34/7
f 47/26/47 44/42/44 7/34/7
f 47/105/47 71/89/71 93/93/93
f 48/22/48 49/8/49 8/18/8
f 49/8/49 46/30/46 8/18/8
f 49/123/49 72/101/72 92/117/92
f 50/21/50 51/1/51 9/11/9
f 51/1/51 48/22/48 9/11/9
f 51/130/51 73/109/73 91/127/91
f 52/29/52 53/7/53 10/17/10
f 53/7/53 50/21/50 10/17/10
f 53/124/53 74/110/74 90/128/90
f 54/41/54 55/25/55 11/33/11
f 55/25/55 52/29/52 11/33/11
f 55/106/55 75/102/75 89/118/89
f 56/57/56 57/45/57 12/49/12
f 57/45/57 54/41/54 12/49/12
f 57/86/57 76/90/76 88/94/88
f 58/72/58 59/62/59 13/61/13
f 59/62/59 56/57/56 13/61/13
f 59/70/59 77/74/77 87/78/87
f 60/88/60 61/84/61 14/80/14
f 61/84/61 58/72/58 14/80/14
f 61/47/61 78/60/78 86/56/86
f 62/99/62 63/103/63 15/96/15
f 63/103/63 60/88/60 15/96/15
f 63/28/63 79/44/79 85/40/85
f 64/121/64 62/99/62 16/111/16
f 64/10/64 66/24/66 32/20/32
f 64/10/64 80/32/80 84/16/84
f 65/23/65 66/24/66 17/12/17
f 66/24/66 35/2/35 17/12/17
f 66/24/66 80/32/80 32/20/32
f 67/31/67 65/23/65 18/19/18
f 67/31/67 68/43/68 82/68/82
f 68/43/68 67/31/67 19/35/19
f 69/59/69 68/43/68 20/51/20
f 70/73/70 69/59/69 21/67/21
f 71/89/71 70/73/70 22/81/22
f 72/101/72 71/89/71 23/97/23
f 73/109/73 72/101/72 24/113/24
f 74/110/74 73/109/73 25/120/25
f 75/102/75 74/110/74 26/114/26
f 76/90/76 75/102/75 27/98/27
f 77/74/77 76/90/76 28/82/28
f 78/60/78 77/74/77 29/69/29
f 79/44/79 78/60/78 30/52/30
f 80/32/80 79/44/79 31/36/31
f 81/63/81 33/107/33 34/108/34
f 81/63/81 36/100/36 33/107/33
f 81/63/81 38/87/38 36/100/36
f 81/63/81 40/71/40 38/87/38
f 81/63/81 42/58/42 40/71/40
f 81/63/81 44/42/44 42/58/42
f 81/63/81 46/30/46 44/42/44
f 81/63/81 48/22/48 46/30/46
f 81/63/81 50/21/50 48/22/48
f 81/63/81 52/29/52 50/21/50
f 81/63/81 54/41/54 52/29/52
f 81/63/81 56/57/56 54/41/54
f 81/63/81 58/72/58 56/57/56
f 81/63/81 60/88/60 58/72/58
f 81/63/81 62/99/62 60/88/60
f 82/68/82 65/23/65 67/31/67
f 82/68/82 66/24/66 65/23/65
f 82/68/82 68/43/68 69/59/69
f 82/68/82 69/59/69 70/73/70
f 82/68/82 70/73/70 71/89/71
f 82/68/82 71/89/71 72/101/72
f 82/68/82 72/101/72 73/109/73
f 82/68/82 73/109/73 74/110/74
f 82/68/82 74/110/74 75/102/75
f 82/68/82 75/102/75 76/90/76
f 82/68/82 76/90/76 77/74/77
f 82/68/82 77/74/77 78/60/78
f 82/68/82 78/60/78 79/44/79
f 82/68/82 79/44/79 80/32/80
f 82/68/82 80/32/80 66/24/66
f 83/125/83 34/108/34 35/129/35
f 83/125/83 64/121/64 34/108/34
f 83/6/83 66/24/66 64/10/64
f 84/115/84 62/99/62 64/121/64
f 84/115/84 63/103/63 62/99/62
f 84/16/84 80/32/80 63/28/63
f 85/92/85 60/88/60 63/103/63
f 85/92/85 61/84/61 60/88/60
f 85/40/85 79/44/79 61/47/61
f 86/75/86 58/72/58 61/84/61
f 86/75/86 59/62/59 58/72/58
f 86/56/86 78/60/78 59/70/59
f 87/53/87 56/57/56 59/62/59
f 87/53/87 57/45/57 56/57/56
f 87/78/87 77/74/77 57/86/57
f 88/37/88 54/41/54 57/45/57
f 88/37/88 55/25/55 54/41/54
f 88/94/88 76/90/76 55/106/55
f 89/13/89 52/29/52 55/25/55
f 89/13/89 53/7/53 52/29/52
f 89/118/89 75/102/75 53/124/53
f 90/4/90 50/21/50 53/7/53
f 90/4/90 51/1/51 50/21/50
f 90/128/90 74/110/74 51/130/51
f 91/3/91 48/22/48 51/1/51
f 91/3/91 49/8/49 48/22/48
f 91/127/91 73/109/73 49/123/49
f 92/14/92 46/30/46 49/8/49
f 92/14/92 47/26/47 46/30/46
f 92/117/92 72/101/72 47/105/47
f 93/38/93 44/42/44 47/26/47
f 93/38/93 45/46/45 44/42/44
f 93/93/93 71/89/71 45/85/45
f 94/54/94 42/58/42 45/46/45
f 94/54/94 43/64/43 42/58/42
f 94/77/94 70/73/70 43/66/43
f 95/76/95 40/71/40 43/64/43
f 95/76/95 41/83/41 40/71/40
f 95/55/95 69/59/69 41/48/41
f 96/91/96 38/87/38 41/83/41
f 96/91/96 39/104/39 38/87/38
f 96/39/96 68/43/68 39/27/39
f 97/116/97 36/100/36 39/104/39
f 97/116/97 37/122/37 36/100/36
f 97/15/97 67/31/67 37/9/37
f 98/126/98 33/107/33 37/122/37
f 98/126/98 35/129/35 33/107/33
f 98/5/98 65/23/65 35/2/35
